<svg width="1101" height="313" viewBox="0 0 1101 313" fill="none" xmlns="http://www.w3.org/2000/svg">
<g opacity="0.5" clip-path="url(#clip0_720_2331)">
<g opacity="0.8">
<path opacity="0.2" d="M210.396 60.4931C201.871 60.4424 193.475 61.4982 185.334 63.6447C151.06 72.7767 123.768 101.812 98.7494 130.768L94.3276 135.899C70.7916 163.227 46.4534 191.486 15.645 204.898C-15.0321 218.252 -58.3684 214.604 -86.0373 176.35L-86.1649 176.501C-73.8153 193.572 -57.0365 205.083 -37.6437 209.797C-19.998 214.083 -1.04593 212.423 15.7225 205.124C46.5639 191.699 70.9113 163.426 94.4601 136.083C95.9357 134.372 97.4097 132.662 98.8822 130.954C123.883 102.015 151.159 72.9992 185.394 63.8777C239.936 49.3441 300.128 88.0035 351.815 127.736C354.967 130.157 358.129 132.597 361.3 135.056C385.883 154.044 411.303 173.665 437.155 188.559C451.109 196.6 463.931 202.564 476.365 206.794C490.371 211.56 503.461 214.007 516.404 214.272C527.683 214.501 538.769 213.087 550.291 209.948C560.559 207.149 570.943 203.032 582.038 197.364C602.649 186.821 622.69 172.362 642.053 158.37C660.154 145.29 678.873 131.772 698.137 121.39C731.592 103.355 768.943 94.444 807.207 94.5758C851.073 94.7222 896.146 106.725 938.01 130.424L938.065 130.212C918.325 119.067 898.011 110.44 877.441 104.465C836.187 92.4802 794.562 90.9111 754.959 99.848C735.211 104.302 716.139 111.444 698.045 121.162C678.772 131.549 660.049 145.074 641.943 158.153C603.261 186.094 563.259 214.981 516.378 214.028C462.5 212.927 411.094 173.237 361.381 134.85C358.211 132.41 355.049 129.97 351.896 127.53C329.465 110.288 299.835 88.7399 269.528 75.0483C254.608 68.3062 240.33 63.8557 227.093 61.8207C221.51 60.9591 215.934 60.5158 210.396 60.4931V60.4931Z" fill="url(#paint0_linear_720_2331)"/>
<path opacity="0.2" d="M198.951 61.5852C192.197 61.5553 185.526 62.2588 179.008 63.6885C145.786 70.9957 119.563 97.4236 93.4182 126.193C91.5662 128.232 89.7121 130.28 87.8559 132.335C64.7953 157.839 40.9499 184.209 11.3011 197.255C-18.507 210.367 -60.641 207.937 -87.5836 172.949L-87.732 173.138C-75.6935 188.772 -59.3952 199.129 -40.5983 203.095C-23.4561 206.712 -4.98415 204.736 11.3956 197.533C41.0789 184.472 64.9438 158.082 88.0126 132.571C89.8702 130.517 91.7243 128.47 93.5749 126.428C119.701 97.6835 145.898 71.2707 179.064 63.9746C208.278 57.5511 241.183 65.8379 282.614 90.0551C304.785 103.02 327.042 119.219 347.937 134.692C360.425 143.938 370.954 151.602 381.746 158.945C404.844 174.69 425.232 186.391 444.078 194.732C469.839 206.183 492.996 211.409 514.877 210.681C552.404 209.444 585.244 190.244 612.418 171.626C619.216 166.964 626.109 162.02 632.775 157.237C647.002 147.029 661.711 136.472 676.606 127.89C684.604 123.285 692.492 119.289 700.076 116.008C711.108 111.262 722.471 107.519 734.09 104.804C752.889 100.409 772.617 98.4231 794.426 98.7555C844.595 99.4722 897.225 111.528 942.619 132.721L942.669 132.451C897.25 111.242 844.593 99.1728 794.398 98.464C772.578 98.1319 752.833 100.118 734.033 104.52C722.405 107.238 711.032 110.984 699.991 115.735C692.409 119.016 684.507 123.017 676.497 127.624C661.595 136.211 646.88 146.766 632.652 156.981C625.986 161.762 619.095 166.709 612.297 171.368C585.142 189.964 552.33 209.158 514.845 210.395C492.994 211.112 469.864 205.901 444.128 194.462C425.294 186.113 404.917 174.419 381.831 158.674C371.04 151.331 360.516 143.672 348.031 134.437C327.13 118.955 304.874 102.756 282.686 89.7821C263.398 78.5113 246.375 70.8461 230.649 66.3838C219.494 63.218 208.994 61.619 198.951 61.5852Z" fill="url(#paint1_linear_720_2331)"/>
<path opacity="0.2" d="M187.998 62.4651C182.829 62.4433 177.709 62.8713 172.674 63.7462C157.694 66.3489 142.844 73.3355 127.275 85.1039C113.241 95.7117 100.217 108.949 88.0803 121.599C85.7941 123.981 83.4677 126.425 81.2191 128.787C58.6885 152.451 35.3893 176.92 6.94071 189.562C-21.9959 202.428 -62.9303 201.216 -89.1416 169.514L-89.3075 169.757C-77.583 183.937 -61.7644 193.132 -43.5617 196.352C-26.907 199.297 -8.93199 197.004 7.05608 189.895C35.5353 177.235 58.8491 152.751 81.3944 129.073C83.6445 126.708 85.9709 124.265 88.2556 121.884C114.414 94.6208 140.559 69.687 172.734 64.0922C209.836 57.6429 248.19 77.5853 277.458 95.6804C295.956 107.129 314.61 120.535 332.649 133.497C336.404 136.196 340.29 138.997 344.07 141.688C357.659 151.384 368.716 158.795 378.862 164.995C400.975 178.567 421.684 188.721 442.169 196.035C468.115 205.364 491.404 208.983 513.366 207.094C551.066 203.848 584.349 183.661 611.933 164.343C616.899 160.867 621.955 157.217 626.844 153.691C643.329 141.804 660.376 129.51 677.854 120.715C685.703 116.755 693.773 113.391 702.026 110.638C712.695 107.086 723.931 104.575 736.397 102.959C754.215 100.707 773.366 100.639 796.668 102.744C848.818 107.324 903.693 119.101 947.213 135.053L947.254 134.723C924.708 126.46 899.677 119.401 872.86 113.765C847.576 108.446 821.935 104.623 796.651 102.402C773.334 100.294 754.169 100.362 736.341 102.617C723.86 104.235 712.605 106.75 701.931 110.305C693.668 113.061 685.59 116.429 677.733 120.394C660.243 129.195 643.188 141.494 626.695 153.386C621.808 156.912 616.754 160.557 611.788 164.035C584.226 183.338 550.972 203.51 513.319 206.75C491.387 208.638 468.128 205.023 442.212 195.705C421.743 188.396 401.051 178.251 378.951 164.687C368.81 158.48 357.759 151.077 344.175 141.38C340.394 138.679 336.509 135.881 332.755 133.192C314.727 120.229 296.069 106.82 277.556 95.3703C257.27 82.8295 240.591 74.5261 225.067 69.2316C211.881 64.7496 199.633 62.5037 187.998 62.4651Z" fill="url(#paint2_linear_720_2331)"/>
<path opacity="0.2" d="M177.365 63.1359C173.69 63.1236 170.021 63.345 166.347 63.8124C151.673 65.6955 137.047 71.9161 121.636 82.8295C107.956 92.5265 95.4368 104.515 82.7451 116.983C79.9632 119.719 77.1308 122.534 74.3913 125.259C52.4565 147.069 29.7741 169.619 2.60186 181.826C-25.4608 194.439 -65.1882 194.456 -90.6733 166.056L-90.8542 166.343C-79.4408 179.058 -64.1023 187.084 -46.4963 189.554C-30.3405 191.824 -12.8525 189.211 2.74246 182.204C29.952 169.974 52.6454 147.41 74.6039 125.585C77.3419 122.863 80.1741 120.045 82.9563 117.311C110.095 90.6328 135.106 68.2245 166.416 64.197C202.343 59.5942 238.543 79.3097 272.309 101.309C286.183 110.36 300.367 120.481 314.095 130.269C322.697 136.405 331.593 142.751 340.208 148.684C353.579 157.883 365.281 165.201 375.985 171.054C396.935 182.609 418.48 191.409 440.266 197.308C466.394 204.502 489.814 206.513 511.858 203.451C549.728 198.189 583.463 177.016 611.448 157.001C615.16 154.344 618.95 151.584 622.612 148.915C640.787 135.686 659.586 121.989 679.094 113.506C687.159 109.998 695.47 107.236 703.971 105.239C714.562 102.742 725.923 101.387 738.7 101.105C759.228 100.742 779.771 103.601 798.914 106.748C861.831 116.87 913.282 127.175 951.813 137.386L951.834 136.996C913.296 126.788 861.845 116.478 798.91 106.354C779.756 103.205 759.2 100.34 738.652 100.708C725.859 100.993 714.489 102.35 703.876 104.848C695.363 106.849 687.04 109.615 678.964 113.128C659.421 121.624 640.623 135.326 622.438 148.576C618.774 151.246 614.986 154.005 611.275 156.662C583.296 176.666 549.606 197.815 511.787 203.071C489.774 206.127 466.388 204.125 440.291 196.935C418.526 191.042 397.001 182.25 376.071 170.705C365.377 164.855 353.683 157.541 340.323 148.349C331.708 142.416 322.814 136.073 314.214 129.938C300.488 120.148 286.294 110.025 272.414 100.967C242.052 81.1858 209.718 63.2456 177.365 63.1359Z" fill="url(#paint3_linear_720_2331)"/>
<path opacity="0.2" d="M167.112 63.6088C164.722 63.6005 162.358 63.6934 160.018 63.8877C145.652 65.0815 131.256 70.5408 116.007 80.5783C102.606 89.3989 90.1086 100.637 77.424 112.344C74.0675 115.442 70.6509 118.647 67.3454 121.746C46.0849 141.687 24.1043 162.308 -1.72953 174.038C-28.9194 186.391 -67.4401 187.626 -92.2089 162.563L-92.3997 162.906C-81.2988 174.14 -66.4432 180.988 -49.4367 182.716C-33.7756 184.304 -16.7782 181.376 -1.57915 174.469C24.2926 162.721 46.2951 142.085 67.5718 122.127C70.8772 119.028 74.2867 115.823 77.6471 112.727C99.6863 92.389 127.115 67.0924 160.086 64.3423C196.888 61.287 233.154 83.7318 267.144 106.987C277.21 113.886 287.576 121.345 297.602 128.558C310.355 137.735 323.542 147.221 336.333 155.721C349.846 164.689 361.872 171.697 373.093 177.142C393.722 187.208 415.071 194.223 438.348 198.588C464.658 203.635 488.205 204.032 510.332 199.798C548.37 192.512 582.536 170.358 610.941 149.647C613.733 147.61 616.582 145.506 619.34 143.472C638.874 129.05 659.072 114.131 680.311 106.268C688.598 103.204 697.149 101.049 705.884 99.825C716.612 98.2951 728.095 98.1062 740.967 99.2427C759.595 100.891 778.405 105.365 798.324 110.102L801.129 110.767C847.949 121.678 903.422 131.121 956.387 139.71L956.386 139.265C903.427 130.681 847.966 121.233 801.146 110.318L798.341 109.652C778.415 104.911 759.592 100.435 740.945 98.7867C728.052 97.6461 716.555 97.8378 705.802 99.3684C697.05 100.6 688.481 102.763 680.179 105.836C658.905 113.725 638.691 128.644 619.141 143.076C616.383 145.11 613.534 147.214 610.742 149.251C582.362 169.945 548.228 192.079 510.239 199.354C488.144 203.57 464.631 203.186 438.353 198.146C415.103 193.789 393.783 186.779 373.175 176.727C361.967 171.288 349.957 164.289 336.456 155.33C323.673 146.835 310.488 137.348 297.74 128.176C287.711 120.961 277.343 113.5 267.273 106.599C250.478 95.1254 232.403 83.342 213.928 75.0481C196.964 67.4235 181.569 63.6578 167.112 63.6088Z" fill="url(#paint4_linear_720_2331)"/>
<path opacity="0.2" d="M149.009 63.7773C122.48 63.6877 100.366 83.0212 78.9383 101.751C76.6936 103.713 74.3731 105.742 72.1049 107.69C68.0799 111.155 63.9801 114.773 60.0148 118.268C39.5278 136.322 18.3456 154.992 -6.05758 166.193C-37.6733 180.712 -72.9062 177.832 -93.7327 159.031L-93.9241 159.431C-83.1363 169.174 -68.7629 174.835 -52.3595 175.812C-37.1936 176.716 -20.6897 173.471 -5.88708 166.671C18.5547 155.444 39.7563 136.768 60.2595 118.696C64.2229 115.202 68.3233 111.588 72.3462 108.121C74.6156 106.168 76.9362 104.139 79.1815 102.182C101.816 82.3911 125.223 61.9318 153.74 64.4989C186.133 67.4028 219.517 82.2678 261.98 112.668C268.785 117.549 275.801 122.7 282.589 127.68C298.974 139.704 315.916 152.138 332.454 162.738C346.191 171.533 358.537 178.223 370.198 183.198C390.598 191.949 411.642 197.225 436.425 199.808C462.918 202.698 486.594 201.486 508.799 196.066C547.002 186.76 581.608 163.631 610.42 142.237C612.498 140.691 614.583 139.134 616.675 137.567C637.357 122.086 658.744 106.081 681.511 99.0123C690.028 96.3815 698.823 94.8364 707.78 94.3973C718.573 93.8307 730.164 94.8063 743.216 97.3795C757.977 100.289 772.586 104.984 788.055 109.95C792.996 111.537 798.108 113.179 803.321 114.793C857.425 131.273 920.219 139.672 960.938 142.039L960.905 141.535C920.2 139.17 857.44 130.775 803.362 114.304C798.151 112.692 793.041 111.05 788.101 109.475C772.623 104.504 758.004 99.805 743.227 96.8934C730.147 94.3162 718.532 93.3389 707.715 93.9038C698.735 94.3464 689.917 95.8961 681.376 98.5328C658.56 105.615 637.152 121.637 616.446 137.133C614.355 138.697 612.271 140.254 610.193 141.803C581.404 163.179 546.83 186.288 508.679 195.584C486.504 200.982 462.864 202.202 436.397 199.323C411.647 196.744 390.633 191.474 370.266 182.739C358.624 177.778 346.296 171.099 332.579 162.316C316.051 151.722 299.115 139.293 282.736 127.274C275.948 122.291 268.93 117.138 262.123 112.257C219.609 81.7913 186.174 66.9135 153.716 63.9971C152.132 63.8556 150.563 63.7824 149.009 63.7773Z" fill="url(#paint5_linear_720_2331)"/>
<path opacity="0.2" d="M139.853 63.5334C115.457 63.4523 94.4949 80.5101 74.1569 97.0569C71.7364 99.0248 69.2331 101.062 66.787 103.014C61.9647 106.863 57.069 110.908 52.3253 114.822C32.738 130.979 12.4843 147.686 -10.3811 158.29C-41.4129 172.691 -74.7282 171.574 -95.2525 155.447L-95.4378 155.915C-84.9614 164.147 -71.0731 168.627 -55.2754 168.851C-40.3958 169.075 -24.8033 165.6 -10.192 158.819C12.7113 148.196 32.9828 131.486 52.5872 115.305C57.3294 111.394 62.2342 107.349 67.0441 103.502C69.4899 101.548 71.9953 99.513 74.4159 97.5451C96.7643 79.363 119.874 60.5702 147.403 64.6657C188.734 70.8283 225.9 95.2568 256.807 118.341C260.73 121.277 264.763 124.32 268.666 127.264C288.281 142.056 308.565 157.354 328.566 169.724C342.566 178.372 355.23 184.741 367.295 189.209C393.034 198.798 416.726 200.527 434.482 200.963C461.379 201.631 485.176 198.78 507.24 192.271C545.607 180.944 580.651 156.854 609.872 134.785L614.392 131.357C636.082 114.894 658.511 97.868 682.68 91.7398C691.438 89.5403 700.477 88.6078 709.643 88.9581C720.539 89.3316 732.245 91.4753 745.432 95.5089C757.499 99.2011 769.275 104.091 781.742 109.266C789.356 112.427 797.231 115.698 805.48 118.814C829.414 127.856 857.645 135.016 887.121 139.52C914.93 143.768 942.015 145.434 965.452 144.334L965.387 143.778C915.483 146.118 852.744 136.109 805.554 118.281C797.31 115.164 789.438 111.898 781.827 108.737C769.351 103.558 757.559 98.6558 745.492 94.9685C732.273 90.9238 720.539 88.7761 709.614 88.4011C700.418 88.0491 691.349 88.9849 682.561 91.1925C658.329 97.3369 635.873 114.382 614.157 130.866C612.645 132.013 611.138 133.156 609.636 134.294C580.441 156.345 545.43 180.425 507.109 191.727C485.079 198.227 461.309 201.064 434.45 200.406C416.712 199.972 393.058 198.237 367.369 188.675C355.334 184.23 342.689 177.873 328.715 169.241C308.726 156.882 288.458 141.591 268.848 126.804C264.946 123.862 260.913 120.82 256.989 117.881C236.472 102.559 219.302 91.4899 202.947 83.0453C183.457 72.9808 165.289 66.7933 147.404 64.127C144.879 63.7464 142.358 63.5482 139.853 63.5334V63.5334Z" fill="url(#paint6_linear_720_2331)"/>
<path opacity="0.2" d="M131.031 63.1705C108.425 63.0981 88.4404 78.0887 69.0309 92.6488C66.544 94.5152 63.9717 96.4438 61.462 98.2868C55.7087 102.52 49.8437 107.028 44.1725 111.388C25.6404 125.631 6.4744 140.362 -14.7097 150.288C-44.6555 164.328 -76.8702 164.906 -96.7802 151.763L-96.9463 152.302C-86.7846 159.008 -73.3826 162.286 -58.1926 161.778C-43.8137 161.297 -28.7056 157.524 -14.5021 150.866C6.72383 140.924 25.9009 126.179 44.448 111.924C50.1194 107.566 55.9807 103.058 61.7307 98.8273C64.2421 96.9842 66.8142 95.0532 69.3029 93.1868C91.47 76.5564 114.392 59.3586 141.053 64.8064C182.226 73.2243 220.046 99.4133 251.613 123.947L255.537 127.005C278.071 144.553 301.372 162.714 324.654 176.603C338.941 185.114 351.929 191.144 364.362 195.078C389.6 203.116 412.982 203.073 432.525 201.969C459.634 200.435 483.558 195.975 505.661 188.327C544.19 174.988 579.669 149.956 609.295 127.231L612.371 124.864C634.968 107.463 658.336 89.4933 683.813 84.4019C692.823 82.6267 702.109 82.3084 711.47 83.4539C722.505 84.752 734.326 88.0672 747.606 93.5668C758.046 97.8957 768.131 103.094 778.816 108.598C787.982 113.323 797.462 118.21 807.605 122.746C831.893 133.612 860.595 141.579 890.604 145.749C918.999 149.725 947.168 149.984 969.925 146.509L969.812 145.904C921.193 153.327 856.047 143.787 807.701 122.16C797.57 117.628 788.096 112.745 778.936 108.023C768.249 102.514 758.156 97.3109 747.701 92.9753C734.383 87.4528 722.527 84.1362 711.458 82.8342C702.059 81.6851 692.736 82.0044 683.69 83.7854C658.133 88.8935 634.731 106.902 612.101 124.317L609.024 126.683C579.423 149.391 543.974 174.4 505.492 187.724C483.42 195.361 459.527 199.809 432.449 201.346C412.944 202.449 389.6 202.493 364.421 194.473C352.021 190.562 339.062 184.534 324.814 176.041C301.557 162.168 278.272 144.026 255.75 126.479L251.826 123.422C230.849 107.126 213.538 95.2977 197.344 86.1997C177.587 75.0923 159.184 67.9006 141.079 64.1952C137.721 63.5149 134.362 63.1723 131.031 63.1705V63.1705Z" fill="url(#paint7_linear_720_2331)"/>
<path opacity="0.2" d="M128.242 63.8647C117.148 63.8273 105.731 66.4213 93.5434 71.7002C80.4256 77.3908 67.8505 85.5589 56.092 93.4357C49.2009 98.0561 42.178 103.073 35.3847 107.922C18.1134 120.251 0.25491 132.999 -19.0856 142.154C-47.9354 155.818 -79.0508 158.092 -98.3577 147.944L-98.4936 148.553C-88.6416 153.731 -75.7288 155.813 -61.1524 154.571C-47.2727 153.388 -32.6461 149.312 -18.8579 142.779C0.514099 133.613 18.3891 120.851 35.6701 108.512C42.4619 103.665 49.4832 98.651 56.3706 94.045C82.5793 76.4847 106.564 62.1676 134.684 64.8531C170.999 68.319 205.137 96.0088 238.152 122.786C240.844 124.97 243.625 127.225 246.369 129.437C272.62 150.638 296.333 169.331 320.691 183.349C335.281 191.735 348.59 197.451 361.381 200.825C386.34 207.486 409.355 205.733 430.509 202.849C457.837 199.124 481.883 193.047 504.021 184.269C542.713 168.922 578.631 142.957 608.656 119.582L610.501 118.141C633.934 99.8661 658.163 80.9676 684.883 76.9772C694.155 75.6244 703.689 75.9227 713.232 77.8642C724.439 80.0779 736.375 84.5484 749.716 91.5293C759.011 96.391 767.914 101.91 777.344 107.756C787.562 114.087 798.121 120.635 809.647 126.574C834.218 139.247 863.389 148.008 894.006 151.89C923.269 155.6 951.794 154.441 974.322 148.599L974.16 147.951C926.454 160.318 858.859 151.274 809.779 125.963C798.278 120.032 787.721 113.489 777.513 107.162C768.073 101.314 759.157 95.7887 749.85 90.9201C736.467 83.9166 724.494 79.4423 713.245 77.2083C703.656 75.2593 694.077 74.9607 684.761 76.3204C657.942 80.3231 633.672 99.2539 610.199 117.561L608.355 118.999C578.345 142.346 542.463 168.304 503.816 183.634C481.707 192.399 457.687 198.468 430.392 202.19C409.277 205.07 386.309 206.817 361.42 200.176C348.664 196.812 335.395 191.109 320.84 182.749C296.518 168.749 272.824 150.073 246.592 128.885C243.85 126.673 241.068 124.415 238.376 122.234C221.804 108.792 204.667 94.893 187.525 84.2453C168.312 72.3122 151.016 65.7505 134.654 64.1912C132.528 63.9728 130.391 63.8639 128.242 63.8647Z" fill="url(#paint8_linear_720_2331)"/>
<path opacity="0.2" d="M118.627 63.5473C94.6403 63.4666 72.7973 75.3258 50.7557 88.6382C42.469 93.6519 34.0198 99.2339 25.8495 104.636C10.1101 115.034 -6.16391 125.786 -23.4203 134.034C-51.1513 147.301 -81.1709 151.259 -99.8954 144.123L-99.9844 144.806C-90.4422 148.445 -78.0235 149.328 -64.066 147.365C-50.681 145.481 -36.5391 141.106 -23.1717 134.712C-5.8862 126.449 10.3997 115.69 26.1509 105.284C34.3184 99.8895 42.7631 94.3004 51.0443 89.3012C75.9443 74.2591 100.592 61.0802 128.319 64.9527C164.203 69.9663 195.942 96.7687 229.545 125.147C233.342 128.354 237.27 131.67 241.148 134.904C263.839 153.864 290.265 175.321 316.743 190.015C331.645 198.273 345.276 203.658 358.414 206.473C384.516 212.147 408.279 207.987 428.501 203.641C456.043 197.725 480.211 190.042 502.385 180.151C541.233 162.82 577.58 135.947 608.002 111.95L608.775 111.338C632.985 92.2188 658.024 72.4501 685.93 69.6148C695.475 68.6864 705.257 69.6001 714.968 72.3272C726.37 75.4563 738.416 81.0825 751.797 89.5275C760.253 94.8642 768.311 100.714 776.846 106.911C787.797 114.861 799.114 123.066 811.668 130.381C824.189 137.668 838.108 143.774 853.037 148.508C867.758 153.134 882.585 156.296 897.384 157.967C927.464 161.409 956.337 158.819 978.686 150.633L978.475 149.944C931.525 167.139 861.443 158.626 811.836 129.736C799.308 122.437 788.001 114.227 777.068 106.29C768.525 100.084 760.459 94.2301 751.987 88.8843C738.561 80.4119 726.468 74.7656 715.019 71.6235C705.254 68.8797 695.419 67.961 685.822 68.8964C673.278 70.1688 660.105 75.0519 645.549 83.8202C632.694 91.563 620.37 101.295 608.453 110.707L607.679 111.319C577.268 135.299 540.949 162.152 502.143 179.466C479.995 189.344 455.849 197.028 428.34 202.929C408.158 207.264 384.449 211.418 358.429 205.763C345.338 202.956 331.752 197.589 316.896 189.356C290.456 174.688 264.065 153.251 241.394 134.309C237.518 131.076 233.592 127.762 229.796 124.555C213.656 110.921 196.985 96.8464 180.234 85.8722C161.463 73.5726 144.474 66.494 128.302 64.2366C125.067 63.7868 121.837 63.5567 118.627 63.5473V63.5473Z" fill="url(#paint9_linear_720_2331)"/>
<path opacity="0.2" d="M690.898 61.4068C689.549 61.4023 688.206 61.4405 686.87 61.5214C673.828 62.2572 660.177 66.9635 645.135 75.9081C631.8 83.8385 619.187 93.9204 606.989 103.671C576.176 128.269 539.424 156.014 500.458 175.303C477.892 186.466 453.628 195.74 426.277 203.64C404.825 209.973 381.681 215.764 355.429 211.301C342.194 209.086 327.899 203.911 312.941 195.918C286.044 181.524 259.041 159.424 236.19 139.707C231.353 135.553 226.458 131.243 221.725 127.089C205.951 113.231 189.642 98.9128 173.197 87.5711C154.764 74.8603 138.002 67.2448 121.947 64.2919C117.62 63.503 113.294 63.1034 109.003 63.0961C86.3703 63.0246 65.2778 73.1785 45.422 83.8504C35.3822 89.255 25.6035 95.2269 15.2533 101.549C1.41435 109.999 -12.8995 118.739 -27.7587 125.914C-54.7501 138.954 -82.9853 144.462 -101.447 140.285L-101.473 141.039C-92.2366 143.127 -80.3098 142.821 -66.9836 140.146C-54.0816 137.557 -40.4261 132.886 -27.4953 126.625C-12.6119 119.439 1.71403 110.694 15.556 102.239C25.9011 95.9194 35.6749 89.9525 45.7044 84.5528C69.2274 71.9098 94.4906 59.9873 121.938 65.0385C157.55 71.5908 188.581 98.8404 221.438 127.693C226.173 131.85 231.067 136.148 235.909 140.316C258.796 160.058 285.825 182.183 312.779 196.609C327.79 204.632 342.137 209.825 355.428 212.048C381.775 216.529 404.974 210.715 426.476 204.376C453.849 196.459 478.136 187.17 500.725 176.001C539.731 156.694 576.51 128.929 607.341 104.317C631.041 85.3741 657.901 63.9048 686.968 62.2649C696.794 61.7568 706.824 63.285 716.692 66.7936C728.309 70.8383 740.467 77.6119 753.864 87.5048C761.728 93.3157 769.189 99.5291 777.088 106.109C788.526 115.636 800.349 125.476 813.665 134.157C838.393 150.122 869.324 160.704 900.751 163.963C931.64 167.164 960.857 163.148 983.028 152.655L982.761 151.931C936.616 173.775 864.019 165.847 813.876 133.493C800.595 124.849 788.782 115.006 777.361 105.493C769.454 98.9065 761.985 92.6837 754.105 86.8637C740.657 76.9342 728.446 70.131 716.768 66.0689C708.194 63.0276 699.492 61.4595 690.898 61.4068V61.4068Z" fill="url(#paint10_linear_720_2331)"/>
<path opacity="0.2" d="M688.968 54.1585C688.616 54.1685 688.264 54.1571 687.912 54.1623C674.487 54.3483 660.501 58.7975 645.137 67.764C631.22 75.8876 617.979 86.5904 606.302 96.0352C575.087 121.242 537.901 149.875 498.777 171.126C476.136 183.416 451.749 194.278 424.223 204.332C402.327 212.442 378.75 220.088 352.438 216.802C338.883 215.142 324.268 210.31 308.998 202.44C280.521 187.739 252.358 164.072 230.999 145.079C225.332 140.05 219.618 134.835 214.081 129.793C198.598 115.677 182.586 101.079 166.374 89.34C148.205 76.1809 131.6 68.0077 115.614 64.3688C103.379 61.5752 90.6614 61.8601 76.7314 65.2346C63.6682 68.4084 50.888 74.0203 40.1101 79.09C27.8077 84.8858 15.8416 91.6572 3.17877 98.8243C-8.23661 105.287 -20.0482 111.966 -32.0698 117.833C-57.8226 130.404 -84.9947 137.547 -102.977 136.468L-102.923 137.285C-84.8641 138.365 -57.6028 131.207 -31.7822 118.61C-19.7521 112.738 -7.93224 106.052 3.49401 99.5886C16.1535 92.424 28.1128 85.6576 40.398 79.8694C62.463 69.4872 88.2915 58.9364 115.59 65.1714C151.049 73.2734 182.936 102.342 213.773 130.454C219.306 135.498 225.027 140.713 230.697 145.744C252.086 164.758 280.296 188.471 308.841 203.206C324.17 211.099 338.85 215.959 352.468 217.626C378.885 220.922 402.523 213.262 424.473 205.132C452.02 195.07 476.428 184.2 499.089 171.897C538.249 150.627 575.457 121.976 606.689 96.7452C630.662 77.3668 657.831 55.4017 688.012 54.9828C697.927 54.8584 708.157 56.9879 718.421 61.3222C730.271 66.2825 742.538 74.2006 755.935 85.5272C763.326 91.7777 770.307 98.3562 777.706 105.32C789.514 116.447 801.723 127.957 815.678 137.936C840.588 155.631 871.996 167.011 904.091 169.971C935.752 172.894 965.317 167.453 987.345 154.651L987.026 153.897C941.506 180.352 866.338 173.027 815.899 137.23C801.983 127.267 789.798 115.789 778.005 104.679C770.609 97.7076 763.62 91.1245 756.213 84.8579C742.761 73.4852 730.432 65.5308 718.526 60.5435C708.557 56.3365 698.615 54.1893 688.968 54.1585Z" fill="url(#paint11_linear_720_2331)"/>
<path opacity="0.2" d="M687.501 46.8384C674.146 46.794 660.264 51.0004 645.121 59.6732C631.753 67.3316 619.31 77.2362 605.59 88.4472C573.973 114.257 536.355 143.772 497.072 166.974C474.357 180.387 449.847 192.829 422.143 205.016C398.922 215.344 375.887 224.435 349.426 222.271C335.555 221.168 320.62 216.676 305.034 208.926C274.958 193.948 245.404 168.368 225.791 150.429C219.405 144.598 212.974 138.524 206.753 132.648C191.501 118.24 175.729 103.343 159.696 91.1778C141.722 77.5427 125.224 68.7926 109.262 64.4318C97.2982 61.164 84.8249 60.7432 71.1261 63.1376C57.7131 65.4906 44.6582 70.3598 34.7834 74.3388C19.4598 80.5235 4.59165 88.386 -11.1502 96.7124C-19.3819 101.067 -27.8941 105.571 -36.407 109.775C-60.736 121.782 -86.8436 130.552 -104.54 132.665L-104.393 133.53C-86.6425 131.41 -60.4757 122.62 -36.0982 110.592C-27.5795 106.39 -19.0637 101.887 -10.8268 97.5295C4.90858 89.2104 19.7573 81.3533 35.051 75.1765C58.2276 65.8488 83.2467 58.188 109.208 65.2881C144.611 74.9701 176.025 104.636 206.407 133.334C212.63 139.213 219.063 145.289 225.454 151.125C239.707 164.16 252.32 174.82 264.014 183.699C278.664 194.829 292.027 203.347 304.872 209.74C320.527 217.529 335.535 222.038 349.478 223.146C376.055 225.321 399.155 216.207 422.437 205.85C450.16 193.668 474.686 181.204 497.418 167.781C536.733 144.562 574.371 115.027 606.004 89.2C628.709 70.6399 656.907 47.6052 687.62 47.7111C688.088 47.7121 688.55 47.7204 689.016 47.7309C699.187 48.0103 709.648 50.7485 720.112 55.8729C732.198 61.7561 744.582 70.8103 757.967 83.5568C764.999 90.2433 771.921 97.5407 778.612 104.579C790.678 117.284 803.158 130.422 817.63 141.687C842.763 161.119 874.651 173.292 907.421 175.947C923.254 177.234 938.54 176.252 952.856 173.055C967.571 169.758 980.625 164.231 991.654 156.629L991.279 155.852C971.73 169.327 946.588 175.837 920.195 175.749C884.918 175.632 847.394 163.738 817.916 140.945C803.493 129.719 791.037 116.607 778.992 103.925C772.291 96.8702 765.362 89.5753 758.312 82.8631C744.866 70.0591 732.421 60.9616 720.269 55.0469C709.728 49.8844 699.187 47.1271 688.938 46.8475C688.459 46.8437 687.98 46.8406 687.501 46.8384Z" fill="url(#paint12_linear_720_2331)"/>
<path opacity="0.2" d="M686.221 39.7475C673.22 39.7027 659.746 43.6959 645.154 51.8919C631.338 59.6567 618.251 70.1596 604.936 81.1257C572.921 107.502 534.874 137.85 495.439 162.962C472.649 177.467 448.02 191.467 420.145 205.758C396.543 217.964 373.154 228.828 346.504 227.747C332.322 227.201 317.071 223.057 301.168 215.433C277.386 204.016 251.814 185.095 220.692 155.887C213.68 149.314 206.631 142.436 199.813 135.786C184.745 121.087 169.165 105.892 153.264 93.2949C135.431 79.1738 119.007 69.842 103.033 64.761C76.7836 56.4068 51.1797 62.654 29.6011 69.8879C10.0176 76.4526 -9.75261 86.4344 -28.8771 96.0856C-32.7131 98.0228 -36.6793 100.028 -40.5939 101.976C-62.7007 112.997 -87.7435 123.378 -105.949 129.073L-105.699 129.965C-87.4663 124.265 -62.394 113.87 -40.2651 102.838C-36.349 100.887 -32.3771 98.884 -28.5447 96.9469C-9.44289 87.3034 10.31 77.3292 29.8572 70.7797C51.3483 63.5886 76.8524 57.3584 102.955 65.6623C138.363 76.9285 169.408 107.213 199.429 136.502C206.251 143.156 213.304 150.037 220.331 156.614C251.518 185.885 277.152 204.849 301.005 216.299C316.986 223.964 332.32 228.126 346.581 228.674C358.975 229.179 371.618 227.159 385.228 222.502C397.675 218.244 409.472 212.325 420.489 206.629C448.378 192.329 473.02 178.323 495.826 163.807C535.288 138.681 573.352 108.318 605.38 81.9271C628.716 62.6811 657.769 38.7215 690.065 40.8007C700.498 41.4787 711.182 44.8162 721.84 50.7167C734.08 57.4694 746.579 67.6407 760.023 81.8171C766.701 88.897 773.253 96.5153 779.59 103.884C791.904 118.206 804.644 133.003 819.614 145.579C844.95 166.698 877.315 179.645 910.758 182.014C926.902 183.157 942.436 181.78 956.923 177.919C971.86 173.948 984.993 167.488 995.959 158.75L995.531 157.951C950.445 193.876 871.681 187.986 819.956 144.817C805.037 132.299 792.328 117.524 780.041 103.237C773.697 95.8615 767.135 88.2223 760.442 81.1356C746.924 66.8857 734.366 56.6616 722.038 49.8736C711.295 43.9257 700.517 40.5625 690.002 39.8774C688.749 39.796 687.488 39.7527 686.221 39.7475Z" fill="url(#paint13_linear_720_2331)"/>
<path opacity="0.2" d="M685.111 32.7513C672.433 32.7093 659.319 36.5069 645.217 44.2772C630.956 52.1369 617.731 62.8001 604.312 73.9542C571.902 100.878 533.433 132.035 493.839 159.036C470.978 174.622 446.232 190.159 418.186 206.537C393.32 221.14 370.549 233.243 343.625 233.213L343.308 233.222C328.91 233.174 313.451 229.376 297.35 221.933C273.081 210.705 246.357 190.894 215.652 161.373C208.088 154.11 200.499 146.481 193.159 139.103C178.235 124.105 162.803 108.596 146.997 95.5628C129.269 80.9455 112.878 71.0133 96.887 65.2011C70.2807 55.5301 44.2205 60.3184 24.4857 65.5487C0.862008 71.838 -22.6469 83.2027 -44.7015 94.305C-54.2244 99.0998 -63.73 103.795 -72.906 108.33C-85.6927 114.647 -97.7765 120.612 -107.278 125.572L-106.921 126.474C-97.4186 121.519 -85.3385 115.552 -72.5577 109.247C-63.3711 104.709 -53.8742 100.016 -44.348 95.2189C-22.3206 84.1315 1.15719 72.7818 24.7297 66.5057C44.3804 61.2849 70.3296 56.5256 96.7737 66.1305C132.235 79.0216 162.997 109.939 192.745 139.836C200.089 147.218 207.684 154.85 215.254 162.122C229.454 175.773 242.384 187.016 254.786 196.49C269.617 207.821 283.881 216.687 297.18 222.841C313.488 230.379 329.146 234.197 343.734 234.19C370.79 234.221 393.641 222.09 418.578 207.436C446.635 191.053 471.393 175.508 494.266 159.914C533.875 132.904 572.359 101.73 604.78 74.7965C627.163 56.1861 657.817 30.7022 691.145 34.031C701.828 35.107 712.748 39.035 723.596 45.7082C736.111 53.3691 748.718 64.6566 762.124 80.1873C768.604 87.7279 774.937 95.7911 781.056 103.589C793.47 119.393 806.31 135.736 821.622 149.488C834.543 161.045 849.346 170.277 865.624 176.934C881.261 183.329 897.566 187.075 914.089 188.076C930.547 189.075 946.314 187.296 960.976 182.79C976.13 178.122 989.345 170.766 1000.25 160.903L999.767 160.089C955.276 200.319 873.866 195.113 821.996 148.719C806.756 135.026 793.93 118.72 781.549 102.958C775.417 95.1531 769.076 87.0807 762.578 79.5193C749.109 63.9104 736.43 52.573 723.838 44.8554C712.897 38.1283 701.872 34.1608 691.097 33.0779C689.113 32.8666 687.117 32.7577 685.111 32.7513Z" fill="url(#paint14_linear_720_2331)"/>
<path opacity="0.2" d="M684.127 25.6992C671.738 25.6587 658.95 29.2808 645.276 36.6778C630.601 44.617 616.684 55.9141 603.688 66.8073C570.883 94.2841 531.989 126.266 492.25 155.142C469.319 171.798 444.455 188.869 416.238 207.324C395.716 220.814 370.175 237.589 340.759 238.659C325.967 239.221 310.082 235.761 293.543 228.386C268.501 217.212 241.377 197.066 210.623 166.8C202.573 158.884 194.506 150.546 186.705 142.482C171.888 127.164 156.569 111.335 140.822 97.8414C123.156 82.7042 106.777 72.1523 90.7495 65.587C70.0233 57.0964 47.3472 55.7003 19.3892 61.2007C-0.860515 65.1938 -22.5289 73.2843 -48.7976 86.6603C-74.7201 99.8645 -94.8404 111.786 -108.6 122.088L-108.131 122.981C-94.4016 112.699 -74.3113 100.799 -48.4215 87.6102C-22.2024 74.2591 -0.584664 66.1864 19.6118 62.2042C47.4548 56.7281 70.0038 58.109 90.6052 66.5562C126.157 81.1197 156.708 112.702 186.262 143.246C194.067 151.314 202.138 159.655 210.208 167.579C241.038 197.926 268.251 218.13 293.388 229.355C310.024 236.772 326.008 240.249 340.896 239.688C353.738 239.218 366.786 235.817 380.785 229.287C393.148 223.518 404.819 216.046 416.681 208.254C444.906 189.793 469.779 172.718 492.718 156.054C532.479 127.168 571.378 95.1766 604.191 67.6926C632.483 43.9632 660.511 23.0167 692.213 27.262C703.158 28.7308 714.304 33.2488 725.343 40.6864C738.128 49.2797 750.84 61.6603 764.204 78.5311C770.535 86.5514 776.699 95.0882 782.663 103.332C795.137 120.594 808.037 138.451 823.627 153.359C836.621 165.748 851.598 175.588 868.146 182.625C884.034 189.377 900.615 193.236 917.423 194.092C934.186 194.945 950.205 192.765 965.036 187.616C980.405 182.278 993.7 174.006 1004.55 163.028L1004.01 162.202C959.346 207.402 876.932 202.996 824.053 152.572C808.534 137.73 795.671 119.92 783.219 102.697C777.249 94.4364 771.078 85.8951 764.73 77.8542C751.297 60.896 738.513 48.4494 725.644 39.7974C714.505 32.2922 703.254 27.7442 692.2 26.2503C689.5 25.8903 686.806 25.7064 684.127 25.6992V25.6992Z" fill="url(#paint15_linear_720_2331)"/>
<path opacity="0.2" d="M683.253 18.6005C671.124 18.5599 658.626 22.0287 645.337 29.0912C630.247 37.1074 616.18 48.5966 603.065 59.6776C569.866 87.7123 530.549 120.519 490.656 151.271C467.649 168.999 442.668 187.599 414.285 208.124C393.507 223.19 367.647 241.943 337.888 244.096C322.795 245.201 306.593 242.084 289.734 234.829C263.952 223.726 236.429 203.24 205.593 172.202C197.111 163.668 188.625 154.653 180.409 145.946C165.664 130.307 150.422 114.133 134.708 100.161C117.074 84.4849 100.686 73.2935 84.6119 65.9505C63.8231 56.4525 40.8223 53.4807 14.2953 56.8613C-7.01419 59.586 -29.6217 67.0538 -52.897 79.0551C-76.379 91.1651 -96.0971 104.853 -109.921 118.634L-109.356 119.503C-95.5824 105.777 -75.9221 92.1213 -52.5011 80.0481C-29.2905 68.0814 -6.7529 60.6367 14.4851 57.921C40.8849 54.5533 63.7635 57.5051 84.4257 66.9458C120.086 83.2375 150.507 115.514 179.927 146.728C188.143 155.444 196.639 164.459 205.132 173.001C236.055 204.133 263.676 224.684 289.565 235.833C306.531 243.134 322.841 246.272 338.043 245.157C351.114 244.212 364.366 240.125 378.552 232.661C390.909 226.16 402.734 217.79 414.766 209.066C443.16 188.538 468.14 169.936 491.153 152.2C531.058 121.441 570.38 88.6272 603.585 60.5876C632.244 36.3823 660.669 15.0928 693.285 20.4995C704.49 22.3611 715.863 27.4573 727.089 35.6635C740.149 45.19 752.971 58.667 766.288 76.8627C772.506 85.3795 778.537 94.4001 784.37 103.124C796.871 121.825 809.799 141.162 825.627 157.209C838.691 170.42 853.847 180.885 870.662 188.294C886.802 195.405 903.657 199.37 920.76 200.082C937.829 200.792 954.1 198.215 969.094 192.413C984.68 186.401 998.052 177.22 1008.84 165.13L1008.25 164.292C987.357 187.697 957.231 199.185 925.691 199.078C890.691 198.962 853.947 184.585 826.086 156.401C810.338 140.442 797.441 121.142 784.965 102.499C779.126 93.7681 773.087 84.7314 766.854 76.1939C753.468 57.9018 740.562 44.3476 727.422 34.7577C716.095 26.4795 704.596 21.3283 693.277 19.4441C689.925 18.8917 686.577 18.61 683.253 18.6005V18.6005Z" fill="url(#paint16_linear_720_2331)"/>
<path opacity="0.2" d="M682.472 11.4663C670.579 11.4262 658.35 14.7535 645.397 21.5196C629.906 29.6071 615.682 41.2927 602.44 52.5683C568.845 81.1699 529.103 114.815 489.065 147.432C465.989 166.232 440.89 186.343 412.336 208.943C390.222 226.46 365.158 246.314 335.02 249.533C319.621 251.184 303.11 248.4 285.928 241.259C259.799 230.396 231.08 208.972 200.568 177.584C191.698 168.461 182.828 158.821 174.25 149.494C159.552 133.517 144.353 116.994 128.647 102.531C111.015 86.2952 94.6066 74.4424 78.4818 66.2967C57.5321 55.7137 34.2284 51.0815 9.20897 52.5339C-13.1482 53.8352 -35.4213 60.2119 -56.9897 71.4859C-79.017 83.0013 -97.7743 98.1174 -111.235 115.205L-110.578 116.041C-97.1856 99.0391 -78.5107 83.9906 -56.5707 72.5336C-35.084 61.304 -12.9006 54.9507 9.36219 53.6637C34.2485 52.2197 57.4342 56.8226 78.2529 67.3415C114.031 85.4156 144.38 118.41 173.735 150.325C182.319 159.654 191.195 169.304 200.073 178.437C214.17 192.938 227.959 205.407 241.057 215.499C256.501 227.398 271.542 236.428 285.76 242.337C303.056 249.526 319.693 252.33 335.204 250.666C348.509 249.246 361.962 244.475 376.335 236.083C388.725 228.845 400.209 219.959 412.863 209.934C441.42 187.339 466.517 167.218 489.6 148.419C529.646 115.801 569.391 82.1535 602.989 53.5541C632.009 28.7995 660.836 7.16794 694.353 13.7422C705.82 15.9899 717.426 21.6805 728.833 30.6389C741.984 40.9559 755.285 55.9428 768.359 75.1808C774.492 84.2113 780.417 93.7469 786.145 102.959C798.649 123.072 811.578 143.87 827.614 161.031C840.749 175.075 856.073 186.141 873.162 193.931C889.555 201.409 906.683 205.475 924.078 206.048C941.472 206.621 957.96 203.644 973.137 197.216C988.936 190.524 1002.39 180.44 1013.12 167.244L1012.48 166.398C991.553 192.122 960.337 204.787 927.679 204.679C892.483 204.561 855.622 189.621 828.127 160.225C812.174 143.151 799.279 122.408 786.807 102.348C781.071 93.1197 775.134 83.5773 768.991 74.5238C755.839 55.1806 742.456 40.1073 729.215 29.7182C717.69 20.6697 705.967 14.9264 694.371 12.6472C690.394 11.8708 686.416 11.476 682.472 11.4663V11.4663Z" fill="url(#paint17_linear_720_2331)"/>
<path opacity="0.2" d="M681.773 4.29013C670.096 4.25585 658.106 7.45117 645.451 13.9463C629.569 22.1043 614.599 34.4934 601.813 45.4675L410.389 209.745C388.031 228.928 362.701 250.669 332.155 254.938C292.297 260.508 246.335 236.277 195.55 182.915C186.336 173.234 177.121 162.992 168.211 153.085C153.529 136.762 138.345 119.883 122.625 104.911C104.972 88.1003 88.5305 75.5684 72.3558 66.5967C50.5535 54.4999 26.6849 48.2645 2.87524 48.1854C-8.26296 48.152 -19.2423 49.4501 -29.9198 52.0629C-63.983 60.3834 -93.3279 81.5869 -112.547 111.767L-111.808 112.566C-72.3904 50.6656 6.66714 31.359 72.0854 67.6538C107.975 87.5677 138.315 121.299 167.658 153.917C176.574 163.831 185.792 174.08 195.018 183.773C217.734 207.639 239.733 225.902 260.404 238.058C272.625 245.243 284.625 250.434 296.074 253.491C308.604 256.834 320.815 257.712 332.368 256.095C345.906 254.205 359.562 248.755 374.116 239.433C387.553 230.826 400.534 219.688 410.962 210.737L602.392 46.4545C630.609 22.2383 661.037 -0.756887 695.419 6.9856C720.816 12.7061 746.053 35.0801 770.446 73.4912C776.515 83.0482 782.355 93.1073 788.003 102.834C800.489 124.338 813.4 146.579 829.616 164.833C842.817 179.703 858.321 191.384 875.681 199.55C892.088 207.268 909.976 211.568 927.411 211.987C944.846 212.406 962.061 208.944 977.194 201.98C993.206 194.614 1006.74 183.629 1017.41 169.332L1016.71 168.479C995.413 196.997 963.32 211.101 929.777 210.99C894.595 210.873 857.811 195.131 830.171 164.013C814.037 145.843 801.166 123.675 788.713 102.228C783.059 92.4897 777.212 82.4191 771.129 72.8369C746.57 34.1604 721.114 11.6227 695.466 5.84396C690.894 4.81814 686.312 4.29818 681.773 4.29013Z" fill="url(#paint18_linear_720_2331)"/>
</g>
<path d="M554.252 139.945C538.072 138.517 521.716 138.056 505.324 138.564C485.501 139.159 464.543 141.136 443.053 144.442C400.83 150.936 359.017 161.396 318.58 171.512C279.937 181.185 239.98 191.175 199.738 197.689C157.051 204.6 119.682 207.331 88.6726 205.798C40.8746 203.439 10.6922 190.929 -1.03721 168.613L-1.84069 168.899C10.0156 191.459 40.436 204.104 88.5762 206.479C106.404 207.357 126.69 206.806 148.866 204.838C164.965 203.41 182.124 201.229 199.871 198.357C240.168 191.836 280.14 181.833 318.802 172.161C359.215 162.05 401.002 151.596 443.172 145.111C531.531 131.522 607.621 141.047 675.787 174.229C684.687 178.561 693.575 183.051 702.17 187.393C728.99 200.943 754.321 213.744 782.102 223.279C797.041 228.407 811.254 232.088 825.55 234.533C841.248 237.248 857.409 238.414 873.669 238.005C890.099 237.604 908.321 235.87 927.614 234.034C960.627 230.895 995.805 227.547 1027.5 230.383C1060.09 233.298 1088.99 242.743 1108.12 265.659L1108.85 265.265C1104.34 259.834 1098.98 254.892 1092.87 250.55C1087.11 246.487 1080.72 242.999 1073.84 240.159C1061.1 234.883 1046.41 231.509 1028.92 229.842C996.712 226.777 961.561 230.12 927.567 233.356C908.293 235.19 890.091 236.92 873.699 237.323C864.16 237.56 854.646 237.256 845.231 236.416C791.297 231.59 748.065 209.746 702.67 186.813C694.065 182.468 685.182 177.977 676.276 173.641C658.567 165.021 640.146 157.906 621.526 152.493C603.205 147.171 584.162 143.327 564.678 141.021C561.233 140.617 557.758 140.258 554.252 139.945Z" fill="url(#paint19_linear_720_2331)"/>
<path d="M574.621 142.579C555.559 140.873 535.709 140.547 514.541 141.569C493.789 142.576 472.299 144.753 448.844 148.228C410.107 153.944 371.898 161.854 334.95 169.504C314.56 173.725 293.476 178.091 272.651 182.011C254.779 185.393 231.173 189.68 207.05 192.848C190.605 195.008 165.617 198.055 138.588 199.58C106.259 201.401 80.2867 200.372 59.1865 196.433C32.5293 191.456 14.4057 181.69 5.3213 167.411L4.57968 167.724C9.40614 175.311 16.7784 181.69 26.4964 186.682C35.2744 191.198 46.1969 194.692 58.9572 197.07C70.2476 199.177 83.2901 200.471 97.7291 200.916C110.059 201.295 123.812 201.065 138.608 200.231C165.674 198.706 190.686 195.655 207.149 193.492C231.295 190.321 254.923 186.029 272.81 182.646C293.634 178.728 314.738 174.36 335.123 170.136C372.059 162.489 410.252 154.579 448.958 148.87C472.38 145.4 493.836 143.226 514.553 142.221C576.843 139.2 631.134 148.299 680.525 170.061C693.979 175.946 707.122 182.164 721.683 189.084C724.616 190.479 727.538 191.872 730.448 193.265C756.895 205.901 781.875 217.836 808.407 226.293C829.266 232.934 850.047 236.455 871.942 237.033C884.752 237.376 898.759 236.943 915.848 236.188C922.304 235.911 928.761 235.586 935.599 235.241C997.426 232.131 1067.51 228.597 1103.48 265.723L1104.15 265.315C1067.92 227.93 997.615 231.472 935.586 234.596C928.752 234.94 922.296 235.266 915.844 235.542C898.775 236.297 884.792 236.731 872.012 236.387C850.213 235.805 829.52 232.306 808.749 225.691C782.276 217.251 757.321 205.332 730.902 192.709C727.988 191.317 725.066 189.922 722.136 188.526C707.57 181.598 694.416 175.387 680.948 169.495C668.105 163.828 654.693 158.947 640.823 154.89C627.525 151.021 613.827 147.956 599.842 145.72C591.567 144.394 583.16 143.347 574.621 142.579Z" fill="url(#paint20_linear_720_2331)"/>
<path d="M596.149 144.701C572.747 142.607 547.795 142.606 520.178 144.686C500.262 146.186 478.822 148.588 454.63 152.032C423.562 156.42 392.931 161.49 363.307 166.393C335.846 170.937 307.45 175.636 279.459 179.655C258.925 182.634 236.991 185.744 214.359 188.027C193.271 190.158 170.618 192.352 145.922 193.731C113.317 195.55 87.4205 194.882 66.755 191.685C40.0654 187.557 21.5336 178.989 11.6777 166.218L11.0056 166.555C16.2469 173.353 23.9354 179.014 33.8461 183.377C42.7794 187.313 53.7918 190.305 66.5736 192.288C87.3085 195.495 113.27 196.167 145.946 194.343C170.663 192.963 193.33 190.766 214.428 188.635C237.074 186.347 259.028 183.242 279.572 180.258C307.573 176.237 335.973 171.538 363.438 166.998C393.051 162.096 423.684 157.028 454.737 152.64C478.907 149.2 500.328 146.799 520.221 145.301C584.536 140.458 636.977 147.005 685.256 165.905C698.092 170.93 711.736 176.724 726.963 183.615C737.875 188.559 748.599 193.697 758.961 198.664C777.065 207.338 794.163 215.539 811.385 222.332C830.107 229.706 849.041 234.175 869.225 235.985C869.552 236.02 869.879 236.044 870.208 236.071C883.647 237.214 898.853 237.487 911.961 237.606C922.519 237.73 933.357 237.624 944.83 237.512C1001.16 236.951 1065.01 236.329 1098.85 265.785L1099.44 265.361C1091.39 258.349 1081.12 252.612 1068.94 248.311C1058.03 244.458 1045.56 241.671 1030.83 239.789C1003.62 236.313 973.745 236.599 944.849 236.888C933.379 236.999 922.546 237.104 911.997 236.981C898.912 236.861 883.73 236.591 870.324 235.451C849.857 233.71 830.701 229.238 811.755 221.775C794.56 214.996 777.479 206.802 759.392 198.131C749.027 193.163 738.317 188.025 727.378 183.076C712.138 176.178 698.483 170.38 685.632 165.348C659.918 155.283 633.415 148.808 604.598 145.555C601.802 145.24 598.986 144.955 596.149 144.701Z" fill="url(#paint21_linear_720_2331)"/>
<path d="M618.09 146.054C615.207 145.795 612.299 145.571 609.364 145.381C584.337 143.756 557.789 144.522 525.813 147.792C502.776 150.15 479.825 153.176 460.414 155.825L454.9 156.571C396.794 164.42 341.909 171.834 286.263 177.288L280.849 177.831C261.626 179.766 241.749 181.769 221.664 183.193C217.045 183.522 212.056 183.889 206.781 184.278C190.732 185.462 172.54 186.804 153.254 187.87C132.169 189.035 101.047 190.204 74.3239 186.926C47.2081 183.598 28.7955 176.432 18.0314 165.019L17.4257 165.371C23.0928 171.379 31.0839 176.321 41.1765 180.056C50.255 183.417 61.3551 185.918 74.1687 187.491C100.967 190.779 132.146 189.607 153.273 188.441C172.564 187.374 190.762 186.033 206.817 184.848C212.09 184.458 217.072 184.091 221.696 183.764C241.796 182.338 261.681 180.335 280.91 178.398L286.323 177.855C341.984 172.4 396.877 164.984 454.994 157.133L460.507 156.389C479.911 153.74 502.853 150.715 525.876 148.359C592.717 141.521 643.327 145.642 689.975 161.725C703.972 166.551 717.794 171.916 732.227 178.128C751.772 186.537 769.79 195.772 787.213 204.7C796.646 209.533 805.558 214.092 814.35 218.351C831.9 226.82 849.093 232.135 868.46 235.076C878.676 236.627 890.516 237.794 908.049 238.989C922.71 239.985 938.241 240.363 954.682 240.762C1007.83 242.054 1062.79 243.392 1094.22 265.837L1094.73 265.398C1087.14 259.977 1078.02 255.623 1066.85 252.103C1056.96 248.98 1045.72 246.591 1032.48 244.798C1008 241.48 980.922 240.822 954.746 240.186C938.315 239.786 922.796 239.409 908.155 238.414C890.647 237.225 878.823 236.057 868.642 234.509C849.361 231.58 832.241 226.288 814.765 217.854C805.979 213.606 797.072 209.043 787.644 204.211C770.208 195.278 752.186 186.042 732.612 177.618C718.151 171.401 704.323 166.027 690.304 161.195C667.464 153.328 643.76 148.35 618.09 146.054Z" fill="url(#paint22_linear_720_2331)"/>
<path d="M639.191 146.515C631.06 145.787 622.708 145.354 614.135 145.217C590.288 144.83 564.788 146.582 531.46 150.9C520.161 152.364 508.65 153.919 497.517 155.432C487.279 156.818 476.694 158.252 466.205 159.62C409.951 166.865 354.936 171.729 293.073 174.924C286.702 175.273 280.189 175.656 273.89 176.018C259.288 176.865 244.187 177.743 228.968 178.366C215.68 178.917 199.489 179.827 182.347 180.797C175.295 181.196 168.006 181.609 160.588 182.015C135.881 183.365 107.271 184.442 82.243 182.203L81.8898 182.166C54.6997 179.696 35.8865 173.696 24.3766 163.822L23.8556 164.201C35.4747 174.17 54.4205 180.223 81.775 182.708C106.947 184.997 135.746 183.912 160.601 182.555C168.02 182.148 175.312 181.737 182.363 181.337C199.503 180.367 215.689 179.451 228.97 178.906C244.192 178.28 259.296 177.405 273.904 176.556C280.201 176.191 286.714 175.817 293.081 175.464C354.973 172.267 410.002 167.402 466.277 160.154C476.768 158.785 487.355 157.35 497.592 155.964C508.724 154.455 520.233 152.898 531.53 151.434C583.204 144.738 638.736 140.847 694.7 157.563C709.358 161.94 723.647 166.979 737.497 172.657C767.187 184.797 792.736 199.873 815.273 213.175L817.326 214.386C833.256 223.76 848.952 230.025 866.721 234.104C876.57 236.363 888.466 238.363 904.153 240.397C923.355 242.885 944.472 243.962 966.838 245.104C1013.22 247.47 1061.18 249.916 1089.6 265.903L1090.03 265.454C1061.45 249.382 1013.39 246.931 966.918 244.56C944.577 243.419 923.475 242.344 904.306 239.859C888.645 237.828 876.777 235.833 866.954 233.58C849.262 229.518 833.631 223.281 817.767 213.945L815.714 212.733C793.156 199.42 767.597 184.332 737.849 172.17C723.976 166.484 709.664 161.437 694.983 157.052C677.243 151.76 658.825 148.271 639.191 146.515Z" fill="url(#paint23_linear_720_2331)"/>
<path d="M658.926 146.065C646.191 144.925 632.908 144.595 618.909 145.062C591.209 145.984 563.22 149.91 537.102 154.008C516.362 157.265 494.121 160.66 471.994 163.41C410.996 170.888 353.223 172.222 299.873 172.555C288.288 172.628 276.864 172.842 264.768 173.069C255.485 173.243 245.884 173.424 236.276 173.531C219.329 173.721 196.973 174.579 167.927 176.151C141.582 177.577 113.823 178.85 89.463 177.41C62.1635 175.798 42.9516 170.962 30.729 162.628L30.2887 163.021C42.6138 171.426 61.9455 176.295 89.3836 177.92C113.786 179.359 141.571 178.088 167.94 176.661C196.972 175.089 219.318 174.232 236.252 174.042C245.863 173.938 255.465 173.755 264.751 173.581C276.844 173.353 288.266 173.139 299.846 173.066C322.853 172.923 353.279 172.571 384.611 171.115C415.72 169.669 444.325 167.315 472.065 163.916C494.205 161.159 516.455 157.763 537.2 154.505C591.393 145.994 644.579 139.505 699.424 153.394C714.325 157.153 728.81 161.761 742.769 167.18C768.572 177.194 793.209 190.932 820.302 210.416C834.93 220.905 848.71 227.908 864.981 233.123C874.511 236.177 886.05 239.014 900.258 241.79C924.348 246.51 953.276 248.458 981.25 250.341C1021.83 253.074 1060.17 255.655 1084.98 265.953L1085.3 265.498C1074.11 260.852 1058.93 257.345 1038.89 254.788C1021.01 252.506 1000.84 251.144 981.335 249.831C953.385 247.948 924.483 246.003 900.441 241.293C886.263 238.517 874.752 235.686 865.251 232.635C849.049 227.444 835.325 220.467 820.752 210.018C808.619 201.29 797.202 193.869 785.861 187.332C771.691 179.164 757.295 172.224 743.076 166.707C729.09 161.277 714.577 156.662 699.648 152.897C686.456 149.572 672.817 147.283 658.926 146.065V146.065Z" fill="url(#paint24_linear_720_2331)"/>
<path d="M676.941 144.721C672.661 144.338 668.319 144.06 663.882 143.882C651.211 143.376 638.062 143.714 623.691 144.916C596.45 147.195 569.149 152.237 542.747 157.116C518.082 161.674 497.444 164.882 477.781 167.21C418.641 174.083 363.099 172.545 306.676 170.198C290.044 169.506 273.458 169.223 255.9 168.924C251.816 168.854 247.709 168.782 243.579 168.708C224.763 168.362 201.14 168.912 175.264 170.299L170.342 170.564C118.613 173.352 65.1211 176.234 37.0786 161.445L36.7239 161.846C64.9299 176.721 118.525 173.833 170.356 171.04L175.276 170.775C201.134 169.389 224.738 168.84 243.539 169.179C247.669 169.254 251.776 169.326 255.859 169.395C273.41 169.702 289.984 169.983 306.613 170.676C331.924 171.729 361.382 172.838 390.708 172.671C422.104 172.487 450.605 170.856 477.837 167.691C497.516 165.359 518.175 162.149 542.855 157.587C595.321 147.892 649.573 137.865 704.145 149.236C719.274 152.362 733.96 156.536 748.036 161.71C782.655 174.445 808.068 193.071 823.286 206.452C836.504 218.043 848.836 225.968 863.248 232.146C872.439 236.087 883.272 239.703 896.368 243.204C925.987 251.117 963.147 253.717 999.092 256.233C1030.46 258.427 1060.08 260.499 1080.36 266.018L1080.58 265.566C1060.24 260.029 1030.58 257.953 999.176 255.757C963.265 253.244 926.133 250.646 896.59 242.751C883.525 239.259 872.723 235.653 863.561 231.725C849.205 225.571 836.933 217.676 823.748 206.123C808.495 192.711 783.027 174.043 748.315 161.281C734.209 156.094 719.491 151.909 704.329 148.773C695.368 146.903 686.215 145.548 676.941 144.721V144.721Z" fill="url(#paint25_linear_720_2331)"/>
<path d="M692.994 142.599C685.947 141.975 678.84 141.664 671.709 141.666C660.07 141.653 648.004 142.407 634.833 143.972C610.328 146.88 585.362 152.266 561.217 157.471C557.022 158.376 552.682 159.312 548.402 160.223C524.962 165.211 503.758 168.738 483.575 171.005C422.62 177.704 367.141 172.688 313.483 167.837C292.604 165.945 271.109 164.846 250.89 163.879C231.047 162.929 207.435 163.124 182.608 164.441C176.418 164.764 170.085 165.133 163.965 165.485C115.934 168.248 70.5679 170.86 43.4345 160.261L43.1672 160.66C49.7293 163.223 57.5181 165.09 66.9576 166.362C75.3718 167.496 84.9324 168.132 96.1828 168.305C117.086 168.626 140.926 167.255 163.982 165.927C170.1 165.575 176.427 165.211 182.622 164.883C207.425 163.567 231.019 163.375 250.83 164.321C270.805 165.277 292.018 166.364 312.655 168.21L313.391 168.277C344.132 171.056 369.792 173.258 396.819 174.206C428.269 175.311 456.664 174.407 483.628 171.444C503.833 169.174 525.061 165.644 548.523 160.651C552.805 159.739 557.145 158.803 561.34 157.898C611.508 147.074 658.894 136.858 708.878 145.054C724.577 147.629 739.112 151.284 753.314 156.227C782.096 166.249 807.999 182.672 826.286 202.474C838.364 215.504 848.904 224.081 861.529 231.156C870.207 236.013 880.336 240.409 892.491 244.594C908.772 250.199 929.356 254.336 955.423 257.24C978.132 259.77 1001.98 261.029 1023.02 262.139C1042.91 263.19 1061.69 264.181 1075.75 266.056L1075.88 265.619C1061.79 263.741 1042.99 262.749 1023.09 261.698C981.26 259.489 929.201 256.743 892.743 244.186C880.62 240.013 870.52 235.636 861.873 230.79C849.295 223.749 838.791 215.199 826.749 202.201C818.127 192.862 807.827 184.255 796.137 176.618C783.271 168.192 768.957 161.197 753.566 155.817C739.337 150.862 724.758 147.198 709.023 144.617C703.72 143.757 698.4 143.083 692.994 142.599Z" fill="url(#paint26_linear_720_2331)"/>
<path d="M707.466 139.833C698.072 139.005 688.569 138.786 679.052 139.179C668.267 139.599 657.11 140.729 644.94 142.635C622.33 146.172 599.477 151.943 577.373 157.524C569.733 159.454 561.832 161.448 554.028 163.33C531.073 168.866 509.913 172.618 489.349 174.799C456.374 178.216 424.668 177.324 393.855 174.561C369.529 172.384 345.759 169.05 322.332 165.766L320.263 165.475C302.571 162.994 282.842 160.954 258.173 159.05C237.746 157.471 214.14 157.312 189.927 158.582C179.018 159.154 167.913 159.884 157.17 160.604C115.208 163.389 75.5734 166.019 49.7674 159.084L49.5761 159.473C75.4818 166.437 115.169 163.804 157.187 161.014C167.926 160.301 179.031 159.565 189.935 158.993C214.121 157.724 237.691 157.886 258.095 159.463C282.75 161.365 302.468 163.402 320.145 165.883L322.215 166.173C348.818 169.904 376.329 173.76 403.96 175.837C434.929 178.162 462.875 177.957 489.388 175.21C509.987 173.026 531.176 169.269 554.16 163.726C561.967 161.844 569.87 159.849 577.519 157.92C621.554 146.793 667.097 135.293 713.588 140.887C729.497 142.801 744.213 146.022 758.572 150.754C788.717 160.686 813.824 177.642 829.267 198.514C838.526 210.981 847.271 221.138 859.795 230.178C867.813 235.964 877.237 241.137 888.599 246.001C936.9 266.662 1014.98 266.333 1061.63 266.141C1064.98 266.128 1068.14 266.117 1071.12 266.108L1071.15 265.696C1068.16 265.7 1065 265.711 1061.66 265.728C1036.9 265.833 1003.29 265.975 969.991 262.996C940.6 260.365 911.461 255.306 888.868 245.64C877.538 240.794 868.147 235.636 860.157 229.872C847.67 220.863 838.959 210.734 829.723 198.296C822.404 188.393 812.821 179.304 801.255 171.267C788.694 162.543 774.367 155.494 758.797 150.378C744.397 145.64 729.645 142.404 713.695 140.484C711.623 140.234 709.547 140.017 707.466 139.833Z" fill="url(#paint27_linear_720_2331)"/>
<path d="M721.237 136.581C720.286 136.495 719.33 136.415 718.371 136.341C707.818 135.527 697.165 135.578 685.801 136.495C675.681 137.312 665.224 138.804 653.837 141.05C632.689 145.231 611.457 151.47 590.925 157.504C580.697 160.511 570.117 163.618 559.683 166.427C537.05 172.533 515.941 176.509 495.134 178.583C437.342 184.206 383.929 173.984 332.272 164.1L327.058 163.103C308.426 159.544 288.281 156.636 265.471 154.211C244.648 151.996 221.06 151.479 197.263 152.713C181.399 153.536 165.371 154.831 149.873 156.085C113.994 158.985 80.1053 161.724 56.1229 157.895L56.0048 158.262C80.058 162.102 113.982 159.36 149.899 156.457C165.389 155.204 181.414 153.91 197.273 153.087C221.039 151.854 244.593 152.371 265.385 154.583C288.18 157.005 308.309 159.912 326.928 163.468L332.142 164.48C358 169.428 384.742 174.54 411.683 177.611C426.185 179.264 439.595 180.207 452.678 180.497C467.361 180.824 481.26 180.324 495.174 178.97C516.009 176.893 537.157 172.91 559.821 166.795C570.257 163.978 580.843 160.87 591.066 157.862C632.088 145.806 674.506 133.343 718.295 136.716C734.381 137.957 749.277 140.758 763.828 145.279C794.691 154.87 819.63 172.832 832.253 194.55C839.443 206.867 846.826 218.786 858.065 229.196C865.403 235.997 873.876 241.785 884.711 247.402C896.411 253.469 910.89 258.395 927.752 262.045C942.596 265.256 959.281 267.49 977.341 268.677C1006.66 270.606 1039.98 269.657 1066.48 266.139L1066.43 265.769C1026.38 271.086 936.929 274.02 884.987 247.084C874.188 241.485 865.751 235.721 858.433 228.944C847.229 218.568 839.86 206.673 832.686 194.378C826.673 184.034 817.573 174.187 806.365 165.902C794.267 156.959 780.014 149.901 764.019 144.928C750.374 140.678 735.992 137.872 721.237 136.581V136.581Z" fill="url(#paint28_linear_720_2331)"/>
<path d="M734.219 132.888C730.556 132.561 726.836 132.332 723.061 132.202C704.325 131.556 684.298 133.878 661.839 139.301C641.84 144.127 621.881 150.89 602.579 157.429C590.378 161.563 577.761 165.837 565.345 169.547C542.959 176.235 521.888 180.436 500.931 182.391C443.939 187.575 391.632 174.83 341.048 162.505L333.858 160.755C314.503 156.055 294.527 152.339 272.777 149.394C268.105 148.768 263.311 148.226 258.425 147.789C241.237 146.251 222.899 145.929 204.609 146.868C183.49 147.95 162.402 150.095 142.011 152.168C112.223 155.196 84.0879 158.058 62.4925 156.735L62.4365 157.075C84.0769 158.4 112.239 155.537 142.044 152.509C162.43 150.437 183.508 148.294 204.615 147.212C228.07 146.009 251.608 146.881 272.683 149.734C294.414 152.677 314.375 156.389 333.709 161.089C336.107 161.671 338.504 162.254 340.9 162.838C366.205 169.005 392.373 175.381 418.815 179.437C433.054 181.616 446.23 182.976 459.091 183.581C473.538 184.258 487.229 183.985 500.949 182.736C521.945 180.774 543.049 176.57 565.469 169.872C577.896 166.16 590.517 161.884 602.722 157.748C641.374 144.653 681.341 131.113 723.015 132.55C739.262 133.111 754.337 135.485 769.1 139.808C801.008 149.156 825.114 167.67 835.26 190.592C841.58 204.813 847.036 217.092 856.359 228.22C862.838 235.942 870.616 242.48 880.848 248.8C892.149 255.778 906.261 261.422 922.79 265.589C937.709 269.344 954.283 271.828 972.059 272.968C1004.04 275.02 1037.61 272.473 1061.86 266.169L1061.74 265.846C1037.32 272.201 1000.28 275.255 963.885 271.998C933.21 269.253 902.992 262.032 881.126 248.527C870.929 242.229 863.176 235.715 856.729 228.015C847.436 216.919 841.986 204.657 835.675 190.46C830.831 179.51 822.472 169.165 811.497 160.538C799.819 151.352 785.607 144.267 769.265 139.479C758.032 136.172 746.266 133.96 734.219 132.888V132.888Z" fill="url(#paint29_linear_720_2331)"/>
<path d="M745.334 128.76C739.515 128.245 733.643 128.011 727.751 128.062C687.652 128.367 649.603 143.077 612.807 157.302C599.091 162.604 584.907 168.088 570.992 172.653C548.81 179.931 527.784 184.357 506.708 186.186C450.269 190.955 398.838 175.681 349.103 160.905C346.279 160.066 343.457 159.228 340.637 158.393C320.987 152.588 300.739 147.966 280.063 144.565C258.43 141.009 235.509 139.813 211.935 141.009C185.239 142.36 158.996 145.765 133.609 149.058C109.868 152.137 87.446 155.038 68.854 155.566L68.8477 155.873C87.4712 155.352 109.908 152.442 133.661 149.361C159.037 146.07 185.278 142.668 211.948 141.315C235.487 140.121 258.373 141.315 279.967 144.867C300.624 148.264 320.853 152.882 340.485 158.682C343.307 159.516 346.129 160.353 348.951 161.192C373.817 168.58 399.53 176.22 425.588 181.265C439.621 183.976 452.619 185.748 465.333 186.66C479.605 187.69 493.147 187.633 506.734 186.483C527.844 184.652 548.906 180.225 571.125 172.928C585.052 168.359 599.242 162.873 612.966 157.569C649.721 143.359 687.725 128.667 727.734 128.362C744.122 128.237 759.378 130.183 774.37 134.314C807.238 143.376 830.528 162.439 838.274 186.619C838.847 188.4 839.406 190.153 839.951 191.877C844.129 205.051 847.738 216.43 854.661 227.226C860.199 235.861 867.291 243.159 876.982 250.195C897.824 265.329 929.707 274.945 966.766 277.255C999.97 279.337 1033.78 275.195 1057.21 266.192L1057.05 265.918C1008.34 284.639 921.092 281.793 877.253 249.964C867.597 242.953 860.53 235.68 855.01 227.077C848.105 216.31 844.499 204.947 840.326 191.789C839.778 190.063 839.219 188.31 838.649 186.53C834.949 174.967 827.336 164.123 816.633 155.169C811.053 150.522 804.772 146.428 797.916 142.97C790.614 139.29 782.765 136.292 774.518 134.032C765.12 131.427 755.333 129.659 745.334 128.76V128.76Z" fill="url(#paint30_linear_720_2331)"/>
<path d="M755.213 124.336C747.686 123.673 740.066 123.534 732.441 123.923C693.674 125.829 657.223 141.753 621.974 157.149C607.087 163.652 591.692 170.376 576.645 175.76C554.64 183.632 533.656 188.286 512.496 189.98C499.268 191.015 486.327 190.817 473.644 189.683C432.243 185.979 393.506 172.3 355.745 158.961C352.971 157.982 350.197 157.004 347.424 156.028C327.038 148.933 307.39 143.603 287.359 139.732C265.551 135.517 242.643 133.974 219.274 135.145C186.775 136.773 153.911 142.213 124.915 147.013C107.077 149.967 90.2286 152.755 75.2235 154.394L75.2553 154.664C90.2712 153.024 107.125 150.238 124.97 147.281C153.953 142.482 186.805 137.045 219.279 135.417C242.612 134.253 265.495 135.789 287.261 139.997C307.272 143.864 326.893 149.189 347.268 156.277C350.041 157.252 352.814 158.23 355.587 159.211C380.23 167.912 405.714 176.905 431.62 183.012C445.575 186.297 458.517 188.501 471.187 189.746C485.415 191.146 498.935 191.308 512.513 190.246C533.712 188.546 554.731 183.887 576.773 176.002C591.834 170.614 607.234 163.886 622.128 157.38C657.343 141.999 693.757 126.09 732.444 124.189C748.963 123.377 764.4 124.894 779.633 128.838C812.933 137.457 835.967 157.577 841.263 182.661C841.95 185.888 842.58 189.054 843.184 192.115C845.577 204.187 847.838 215.584 852.944 226.25C857.511 235.777 863.915 243.833 873.1 251.596C883.508 260.395 896.872 267.488 912.822 272.681C927.642 277.504 944.005 280.488 961.453 281.55C978.035 282.559 995.088 281.713 1010.77 279.103C1026.64 276.46 1041.09 272.006 1052.53 266.223L1052.36 265.995C1029.33 277.625 995.36 283.338 961.494 281.277C924.794 279.045 893.503 268.436 873.356 251.406C864.2 243.666 857.816 235.637 853.265 226.142C848.171 215.503 845.911 204.118 843.522 192.059C842.915 188.998 842.286 185.838 841.6 182.604C839.023 170.427 832.156 159.078 821.738 149.804C816.349 145.026 810.16 140.85 803.324 137.378C796.01 133.675 788.095 130.721 779.759 128.582C771.82 126.516 763.597 125.094 755.213 124.336V124.336Z" fill="url(#paint31_linear_720_2331)"/>
<path d="M764.233 119.702C755.278 118.914 746.185 118.941 737.133 119.781C699.426 123.183 664.291 140.371 630.314 156.989C613.798 165.067 598.2 172.698 582.3 178.863C560.454 187.337 539.514 192.213 518.28 193.779C462.246 197.807 411.955 177.262 363.32 157.388C360.28 156.148 357.242 154.907 354.206 153.667C333.661 145.379 314.18 139.243 294.651 134.905C272.723 130.032 249.723 128.134 226.61 129.289C188.245 131.189 150.041 139.186 116.333 146.242C104.097 148.803 92.5401 151.223 81.6014 153.229L81.6558 153.462C92.6037 151.453 104.16 149.027 116.397 146.472C150.09 139.419 188.28 131.425 226.614 129.526C249.692 128.374 272.657 130.271 294.551 135.138C314.063 139.471 333.527 145.604 354.053 153.884C357.09 155.119 360.128 156.359 363.167 157.605C387.447 167.523 412.555 177.78 438.155 184.871C451.948 188.689 464.752 191.302 477.3 192.859C491.398 194.607 504.806 194.985 518.291 194.016C539.562 192.454 560.539 187.568 582.42 179.082C598.332 172.911 613.938 165.277 630.465 157.195C664.411 140.591 699.514 123.42 737.154 120.024C753.794 118.521 769.413 119.615 784.899 123.368C819.069 131.653 841.269 152.345 844.281 178.719C844.788 183.123 845.171 187.418 845.54 191.571C846.592 203.41 847.587 214.59 851.256 225.288C854.825 235.695 860.542 244.504 869.247 253.012C879.185 262.709 892.165 270.527 907.855 276.237C922.359 281.516 939.062 284.84 956.163 285.849C972.882 286.838 990.006 285.631 1005.67 282.358C1021.77 278.995 1036.37 273.429 1047.89 266.26L1047.71 266.076C1024.79 280.342 990.579 287.646 956.202 285.611C920.223 283.482 888.618 271.541 869.493 252.85C860.813 244.367 855.113 235.585 851.555 225.209C847.893 214.532 846.9 203.363 845.848 191.537C845.478 187.382 845.097 183.086 844.588 178.679C841.56 152.214 819.285 131.45 785.001 123.143C778.258 121.496 771.307 120.344 764.233 119.702V119.702Z" fill="url(#paint32_linear_720_2331)"/>
<path d="M772.638 114.911C762.598 114.013 752.405 114.261 741.831 115.645C704.959 120.471 670.916 138.96 638.01 156.845C620.77 166.21 604.489 175.057 587.958 181.972C566.261 191.05 545.365 196.152 524.07 197.571C468.326 201.222 418.669 178.122 370.654 155.803C367.483 154.329 364.207 152.805 360.986 151.315C340.349 141.823 321.035 134.875 301.949 130.087C279.869 124.55 256.993 122.314 233.947 123.441C190.01 125.59 146.719 136.851 108.526 146.787C101.396 148.641 94.6625 150.393 87.9875 152.072L88.0559 152.268C94.7345 150.588 101.467 148.836 108.596 146.981C146.775 137.049 190.047 125.793 233.95 123.645C256.958 122.518 279.804 124.751 301.851 130.281C320.93 135.066 340.227 142.004 360.847 151.493C364.068 152.983 367.346 154.506 370.515 155.981C394.471 167.122 419.244 178.643 444.578 186.725C458.227 191.078 470.913 194.103 483.36 195.97C497.347 198.067 510.665 198.66 524.077 197.781C534.641 197.06 545.132 195.446 555.367 192.967C566.124 190.374 577.127 186.737 588.072 182.157C604.617 175.235 620.899 166.386 638.152 157.016C671.042 139.148 705.053 120.663 741.861 115.852C758.618 113.658 774.419 114.326 790.165 117.892C825.195 125.828 846.551 147.091 847.293 174.77C847.447 180.147 847.386 185.379 847.337 190.44C847.222 202.267 847.099 213.437 849.569 224.317C852.135 235.634 857.163 245.197 865.395 254.415C883.617 274.969 914.586 287.991 950.348 290.144C967.252 291.16 984.541 289.617 1000.33 285.681C1008.26 283.721 1015.93 281.095 1023.22 277.85C1030.42 274.638 1037.14 270.76 1043.22 266.304L1043.04 266.157C1019.98 283.15 985.338 292.04 950.38 289.94C914.691 287.796 883.79 274.803 865.609 254.297C857.398 245.102 852.383 235.563 849.823 224.276C847.359 213.41 847.474 202.249 847.598 190.431C847.651 185.369 847.708 180.136 847.555 174.756C847.195 161.322 841.81 148.987 832.001 139.087C822.026 129.021 807.588 121.624 790.25 117.698C784.511 116.387 778.62 115.454 772.638 114.911Z" fill="url(#paint33_linear_720_2331)"/>
<path d="M780.524 109.993C769.385 108.996 758.154 109.502 746.527 111.506C710.299 117.651 677.189 137.51 645.169 156.715C627.394 167.375 610.604 177.446 593.615 185.079C572.06 194.764 551.203 200.091 529.852 201.366C474.337 204.648 425.264 178.995 377.808 154.187C374.515 152.459 371.105 150.685 367.761 148.946C347.081 138.229 327.936 130.478 309.228 125.252C298.718 122.295 287.831 120.132 276.707 118.789C265.046 117.411 253.172 117.007 241.28 117.582C219.478 118.63 196.022 122.306 169.576 128.801C146.292 134.522 123.913 141.585 102.27 148.416C99.6209 149.252 96.9886 150.082 94.3729 150.906L94.4445 151.064C97.0602 150.241 99.6926 149.411 102.342 148.574C144.62 135.226 192.529 120.103 241.283 117.75C264.476 116.628 286.675 119.135 309.147 125.415C327.837 130.638 346.969 138.382 367.634 149.094C370.983 150.828 374.388 152.612 377.679 154.333C401.342 166.703 425.809 179.493 450.905 188.569C464.427 193.46 477.007 196.896 489.368 199.075C503.257 201.522 516.502 202.323 529.858 201.538C540.388 200.893 550.845 199.27 561.011 196.702C571.798 193.993 582.799 190.132 593.718 185.228C610.72 177.588 627.519 167.516 645.297 156.851C677.295 137.652 710.38 117.808 746.569 111.674C763.377 108.776 779.359 109.016 795.43 112.407C830.769 119.868 851.797 142.245 850.306 170.817C849.984 177.014 849.379 183.043 848.793 188.873C847.595 200.851 846.455 212.167 847.872 223.351C849.41 235.501 853.752 245.819 861.535 255.822C866.047 261.644 871.497 266.964 877.756 271.656C883.843 276.206 890.628 280.147 897.972 283.398C912.218 289.718 928.752 293.545 945.783 294.464C962.658 295.376 979.866 293.434 995.564 288.831C1003.58 286.491 1011.27 283.429 1018.47 279.708C1025.8 275.902 1032.55 271.407 1038.53 266.329L1038.39 266.218C1015.44 285.686 980.831 296.18 945.814 294.289C909.869 292.349 879.216 278.291 861.722 255.723C853.957 245.741 849.624 235.444 848.089 223.32C846.675 212.147 847.81 200.841 849.012 188.873C849.596 183.04 850.202 177.008 850.525 170.81C851.258 156.75 846.625 143.921 837.126 133.71C827.522 123.384 813.127 115.959 795.497 112.237C790.601 111.2 785.596 110.449 780.524 109.993Z" fill="url(#paint34_linear_720_2331)"/>
<path d="M788.193 105.003C778.949 104.177 769.666 104.443 760.111 105.799C747.814 107.545 735.383 111.06 722.109 116.546C697.543 126.698 674.369 141.916 651.951 156.632C633.765 168.579 616.587 179.856 599.265 188.183C568.716 202.867 540.476 207.08 513.826 204.697C467.317 200.534 425.631 176.29 384.817 152.554C381.443 150.592 377.955 148.562 374.525 146.583C353.6 134.494 334.404 125.869 315.84 120.217C302.336 116.106 288.967 113.463 275.461 112.253C266.585 111.462 257.6 111.283 248.606 111.718C225.426 112.825 200.649 117.207 172.857 125.115C147.383 132.365 122.611 141.591 100.755 149.732L100.823 149.854C145.491 133.217 196.118 114.359 248.608 111.854C290.452 109.853 329.252 120.602 374.419 146.693C377.847 148.674 381.337 150.703 384.711 152.665C416.66 171.246 449.699 190.464 484.775 199.713C503.686 204.702 521.578 206.446 539.477 205.044C549.378 204.251 559.18 202.522 568.671 199.897C578.817 197.108 589.139 193.206 599.35 188.298C616.685 179.965 633.867 168.681 652.058 156.736C694.137 129.109 737.538 100.604 788.12 105.135C792.367 105.518 796.564 106.117 800.686 106.928C836.852 114.018 857.016 136.988 853.308 166.872C852.454 173.766 851.231 180.489 850.052 186.99C847.827 199.219 845.728 210.76 846.173 222.325C846.674 235.326 850.328 246.418 857.667 257.229C861.889 263.459 867.131 269.2 873.268 274.314C879.14 279.195 885.8 283.451 893.094 286.985C907.214 293.824 923.676 297.895 940.702 298.759C957.606 299.615 974.847 297.292 990.559 292.038C998.715 289.311 1006.46 285.809 1013.6 281.615C1021.11 277.198 1027.91 272.077 1033.85 266.374L1033.72 266.291C1010.36 288.649 976.461 300.433 940.721 298.624C905.23 296.825 874.24 281.326 857.827 257.156C841.762 233.507 845.874 210.91 850.223 186.996C851.406 180.493 852.63 173.768 853.482 166.869C855.307 152.183 851.415 138.858 842.238 128.338C833.002 117.753 818.65 110.3 800.734 106.787C796.62 105.98 792.431 105.384 788.193 105.003V105.003Z" fill="url(#paint35_linear_720_2331)"/>
</g>
<defs>
<linearGradient id="paint0_linear_720_2331" x1="11.2815" y1="151.007" x2="843.787" y2="137.216" gradientUnits="userSpaceOnUse">
<stop stop-color="#E8DADA" stop-opacity="0.2"/>
<stop offset="0.662966" stop-color="#DC9FAA"/>
<stop offset="1" stop-color="#E29595" stop-opacity="0"/>
</linearGradient>
<linearGradient id="paint1_linear_720_2331" x1="10.47" y1="149.455" x2="847.426" y2="138.664" gradientUnits="userSpaceOnUse">
<stop stop-color="#E8DADA" stop-opacity="0.2"/>
<stop offset="0.662966" stop-color="#DC9FAA"/>
<stop offset="1" stop-color="#E29595" stop-opacity="0"/>
</linearGradient>
<linearGradient id="paint2_linear_720_2331" x1="9.65978" y1="147.989" x2="851.035" y2="140.059" gradientUnits="userSpaceOnUse">
<stop stop-color="#E8DADA" stop-opacity="0.2"/>
<stop offset="0.662966" stop-color="#DC9FAA"/>
<stop offset="1" stop-color="#E29595" stop-opacity="0"/>
</linearGradient>
<linearGradient id="paint3_linear_720_2331" x1="8.88963" y1="146.624" x2="854.639" y2="141.35" gradientUnits="userSpaceOnUse">
<stop stop-color="#E8DADA" stop-opacity="0.2"/>
<stop offset="0.662966" stop-color="#DC9FAA"/>
<stop offset="1" stop-color="#E29595" stop-opacity="0"/>
</linearGradient>
<linearGradient id="paint4_linear_720_2331" x1="8.14176" y1="145.452" x2="858.232" y2="142.469" gradientUnits="userSpaceOnUse">
<stop stop-color="#E8DADA" stop-opacity="0.2"/>
<stop offset="0.662966" stop-color="#DC9FAA"/>
<stop offset="1" stop-color="#E29595" stop-opacity="0"/>
</linearGradient>
<linearGradient id="paint5_linear_720_2331" x1="7.42454" y1="144.383" x2="861.818" y2="142.938" gradientUnits="userSpaceOnUse">
<stop stop-color="#E8DADA" stop-opacity="0.2"/>
<stop offset="0.662966" stop-color="#DC9FAA"/>
<stop offset="1" stop-color="#E29595" stop-opacity="0"/>
</linearGradient>
<linearGradient id="paint6_linear_720_2331" x1="6.76448" y1="143.721" x2="865.439" y2="143.044" gradientUnits="userSpaceOnUse">
<stop stop-color="#E8DADA" stop-opacity="0.2"/>
<stop offset="0.662966" stop-color="#DC9FAA"/>
<stop offset="1" stop-color="#E29595" stop-opacity="0"/>
</linearGradient>
<linearGradient id="paint7_linear_720_2331" x1="6.20363" y1="143.789" x2="869.177" y2="142.715" gradientUnits="userSpaceOnUse">
<stop stop-color="#E8DADA" stop-opacity="0.2"/>
<stop offset="0.662966" stop-color="#DC9FAA"/>
<stop offset="1" stop-color="#E29595" stop-opacity="0"/>
</linearGradient>
<linearGradient id="paint8_linear_720_2331" x1="5.78834" y1="145.331" x2="873.033" y2="143.505" gradientUnits="userSpaceOnUse">
<stop stop-color="#E8DADA" stop-opacity="0.2"/>
<stop offset="0.662966" stop-color="#DC9FAA"/>
<stop offset="1" stop-color="#E29595" stop-opacity="0"/>
</linearGradient>
<linearGradient id="paint9_linear_720_2331" x1="5.41738" y1="146.836" x2="876.899" y2="142.726" gradientUnits="userSpaceOnUse">
<stop stop-color="#E8DADA" stop-opacity="0.2"/>
<stop offset="0.662966" stop-color="#DC9FAA"/>
<stop offset="1" stop-color="#E29595" stop-opacity="0"/>
</linearGradient>
<linearGradient id="paint10_linear_720_2331" x1="5.08375" y1="148.624" x2="880.771" y2="141.803" gradientUnits="userSpaceOnUse">
<stop stop-color="#E8DADA" stop-opacity="0.2"/>
<stop offset="0.662966" stop-color="#DC9FAA"/>
<stop offset="1" stop-color="#E29595" stop-opacity="0"/>
</linearGradient>
<linearGradient id="paint11_linear_720_2331" x1="4.79762" y1="150.536" x2="884.628" y2="140.761" gradientUnits="userSpaceOnUse">
<stop stop-color="#E8DADA" stop-opacity="0.2"/>
<stop offset="0.662966" stop-color="#DC9FAA"/>
<stop offset="1" stop-color="#E29595" stop-opacity="0"/>
</linearGradient>
<linearGradient id="paint12_linear_720_2331" x1="4.46128" y1="152.503" x2="888.46" y2="139.612" gradientUnits="userSpaceOnUse">
<stop stop-color="#E8DADA" stop-opacity="0.2"/>
<stop offset="0.662966" stop-color="#DC9FAA"/>
<stop offset="1" stop-color="#E29595" stop-opacity="0"/>
</linearGradient>
<linearGradient id="paint13_linear_720_2331" x1="4.00485" y1="152.766" x2="892.04" y2="134.802" gradientUnits="userSpaceOnUse">
<stop stop-color="#E8DADA" stop-opacity="0.2"/>
<stop offset="0.662966" stop-color="#DC9FAA"/>
<stop offset="1" stop-color="#E29595" stop-opacity="0"/>
</linearGradient>
<linearGradient id="paint14_linear_720_2331" x1="3.50475" y1="152.111" x2="895.43" y2="128.495" gradientUnits="userSpaceOnUse">
<stop stop-color="#E8DADA" stop-opacity="0.2"/>
<stop offset="0.662966" stop-color="#DC9FAA"/>
<stop offset="1" stop-color="#E29595" stop-opacity="0"/>
</linearGradient>
<linearGradient id="paint15_linear_720_2331" x1="3.01626" y1="151.504" x2="898.782" y2="122.789" gradientUnits="userSpaceOnUse">
<stop stop-color="#E8DADA" stop-opacity="0.2"/>
<stop offset="0.662966" stop-color="#DC9FAA"/>
<stop offset="1" stop-color="#E29595" stop-opacity="0"/>
</linearGradient>
<linearGradient id="paint16_linear_720_2331" x1="2.52879" y1="150.925" x2="902.098" y2="117.6" gradientUnits="userSpaceOnUse">
<stop stop-color="#E8DADA" stop-opacity="0.2"/>
<stop offset="0.662966" stop-color="#DC9FAA"/>
<stop offset="1" stop-color="#E29595" stop-opacity="0"/>
</linearGradient>
<linearGradient id="paint17_linear_720_2331" x1="2.05144" y1="150.404" x2="905.39" y2="112.871" gradientUnits="userSpaceOnUse">
<stop stop-color="#E8DADA" stop-opacity="0.2"/>
<stop offset="0.662966" stop-color="#DC9FAA"/>
<stop offset="1" stop-color="#E29595" stop-opacity="0"/>
</linearGradient>
<linearGradient id="paint18_linear_720_2331" x1="1.57659" y1="149.868" x2="908.678" y2="108.514" gradientUnits="userSpaceOnUse">
<stop stop-color="#E8DADA" stop-opacity="0.2"/>
<stop offset="0.662966" stop-color="#DC9FAA"/>
<stop offset="1" stop-color="#E29595" stop-opacity="0"/>
</linearGradient>
<linearGradient id="paint19_linear_720_2331" x1="623.719" y1="214.566" x2="865.933" y2="311.904" gradientUnits="userSpaceOnUse">
<stop stop-color="#5A5A5A" stop-opacity="0.5"/>
<stop offset="0.375" stop-color="#605454"/>
<stop offset="1" stop-color="#FE9999" stop-opacity="0"/>
</linearGradient>
<linearGradient id="paint20_linear_720_2331" x1="624.535" y1="211.306" x2="863.178" y2="309.304" gradientUnits="userSpaceOnUse">
<stop stop-color="#5A5A5A" stop-opacity="0.5"/>
<stop offset="0.375" stop-color="#605454"/>
<stop offset="1" stop-color="#FE9999" stop-opacity="0"/>
</linearGradient>
<linearGradient id="paint21_linear_720_2331" x1="625.394" y1="207.867" x2="860.517" y2="306.409" gradientUnits="userSpaceOnUse">
<stop stop-color="#5A5A5A" stop-opacity="0.5"/>
<stop offset="0.375" stop-color="#605454"/>
<stop offset="1" stop-color="#FE9999" stop-opacity="0"/>
</linearGradient>
<linearGradient id="paint22_linear_720_2331" x1="626.304" y1="204.18" x2="858.049" y2="303.057" gradientUnits="userSpaceOnUse">
<stop stop-color="#5A5A5A" stop-opacity="0.5"/>
<stop offset="0.375" stop-color="#605454"/>
<stop offset="1" stop-color="#FE9999" stop-opacity="0"/>
</linearGradient>
<linearGradient id="paint23_linear_720_2331" x1="627.268" y1="200.297" x2="855.856" y2="299.217" gradientUnits="userSpaceOnUse">
<stop stop-color="#5A5A5A" stop-opacity="0.5"/>
<stop offset="0.375" stop-color="#605454"/>
<stop offset="1" stop-color="#FE9999" stop-opacity="0"/>
</linearGradient>
<linearGradient id="paint24_linear_720_2331" x1="628.26" y1="196.248" x2="853.967" y2="294.869" gradientUnits="userSpaceOnUse">
<stop stop-color="#5A5A5A" stop-opacity="0.5"/>
<stop offset="0.375" stop-color="#605454"/>
<stop offset="1" stop-color="#FE9999" stop-opacity="0"/>
</linearGradient>
<linearGradient id="paint25_linear_720_2331" x1="629.274" y1="192.131" x2="852.441" y2="290.062" gradientUnits="userSpaceOnUse">
<stop stop-color="#5A5A5A" stop-opacity="0.5"/>
<stop offset="0.375" stop-color="#605454"/>
<stop offset="1" stop-color="#FE9999" stop-opacity="0"/>
</linearGradient>
<linearGradient id="paint26_linear_720_2331" x1="630.289" y1="188.046" x2="851.264" y2="284.891" gradientUnits="userSpaceOnUse">
<stop stop-color="#5A5A5A" stop-opacity="0.5"/>
<stop offset="0.375" stop-color="#605454"/>
<stop offset="1" stop-color="#FE9999" stop-opacity="0"/>
</linearGradient>
<linearGradient id="paint27_linear_720_2331" x1="630.411" y1="187.881" x2="851.527" y2="280.941" gradientUnits="userSpaceOnUse">
<stop stop-color="#5A5A5A" stop-opacity="0.5"/>
<stop offset="0.375" stop-color="#605454"/>
<stop offset="1" stop-color="#FE9999" stop-opacity="0"/>
</linearGradient>
<linearGradient id="paint28_linear_720_2331" x1="630.321" y1="188.684" x2="851.688" y2="277.634" gradientUnits="userSpaceOnUse">
<stop stop-color="#5A5A5A" stop-opacity="0.5"/>
<stop offset="0.375" stop-color="#605454"/>
<stop offset="1" stop-color="#FE9999" stop-opacity="0"/>
</linearGradient>
<linearGradient id="paint29_linear_720_2331" x1="630.259" y1="189.372" x2="851.423" y2="274.617" gradientUnits="userSpaceOnUse">
<stop stop-color="#5A5A5A" stop-opacity="0.5"/>
<stop offset="0.375" stop-color="#605454"/>
<stop offset="1" stop-color="#FE9999" stop-opacity="0"/>
</linearGradient>
<linearGradient id="paint30_linear_720_2331" x1="630.187" y1="189.967" x2="850.769" y2="271.886" gradientUnits="userSpaceOnUse">
<stop stop-color="#5A5A5A" stop-opacity="0.5"/>
<stop offset="0.375" stop-color="#605454"/>
<stop offset="1" stop-color="#FE9999" stop-opacity="0"/>
</linearGradient>
<linearGradient id="paint31_linear_720_2331" x1="630.116" y1="190.501" x2="849.801" y2="269.423" gradientUnits="userSpaceOnUse">
<stop stop-color="#5A5A5A" stop-opacity="0.5"/>
<stop offset="0.375" stop-color="#605454"/>
<stop offset="1" stop-color="#FE9999" stop-opacity="0"/>
</linearGradient>
<linearGradient id="paint32_linear_720_2331" x1="630.078" y1="190.99" x2="848.617" y2="267.207" gradientUnits="userSpaceOnUse">
<stop stop-color="#5A5A5A" stop-opacity="0.5"/>
<stop offset="0.375" stop-color="#605454"/>
<stop offset="1" stop-color="#FE9999" stop-opacity="0"/>
</linearGradient>
<linearGradient id="paint33_linear_720_2331" x1="630.034" y1="191.465" x2="847.223" y2="265.217" gradientUnits="userSpaceOnUse">
<stop stop-color="#5A5A5A" stop-opacity="0.5"/>
<stop offset="0.375" stop-color="#605454"/>
<stop offset="1" stop-color="#FE9999" stop-opacity="0"/>
</linearGradient>
<linearGradient id="paint34_linear_720_2331" x1="629.995" y1="191.875" x2="845.665" y2="263.381" gradientUnits="userSpaceOnUse">
<stop stop-color="#5A5A5A" stop-opacity="0.5"/>
<stop offset="0.375" stop-color="#605454"/>
<stop offset="1" stop-color="#FE9999" stop-opacity="0"/>
</linearGradient>
<linearGradient id="paint35_linear_720_2331" x1="629.961" y1="192.273" x2="843.98" y2="261.715" gradientUnits="userSpaceOnUse">
<stop stop-color="#5A5A5A" stop-opacity="0.5"/>
<stop offset="0.375" stop-color="#605454"/>
<stop offset="1" stop-color="#FE9999" stop-opacity="0"/>
</linearGradient>
<clipPath id="clip0_720_2331">
<rect width="1101" height="313" fill="white" transform="matrix(-1 -8.74228e-08 -8.74228e-08 1 1101 0)"/>
</clipPath>
</defs>
</svg>
