<svg width="52" height="93" viewBox="0 0 52 93" fill="none" xmlns="http://www.w3.org/2000/svg">
<path d="M42.4072 89.2387C34.1197 91.5626 25.3656 91.5626 17.078 89.2387C16.8451 89.1734 16.6462 89.0192 16.523 88.8084C16.3997 88.5977 16.3617 88.3467 16.4169 88.1081L18.6637 78.3872C20.6933 69.5796 19.4724 60.3232 15.2314 52.3662V52.3662C12.4497 47.137 10.9495 41.306 10.8576 35.3653L10.5815 17.2903C23.2233 14.7864 36.2234 14.7864 48.8652 17.2903V17.2903L48.5892 35.3653C48.4982 41.3061 46.998 47.1374 44.2154 52.3662C39.9809 60.3257 38.7668 69.582 40.8024 78.3872L43.0492 88.1081C43.1052 88.3441 43.0698 88.5928 42.9504 88.8031C42.831 89.0134 42.6366 89.1693 42.4072 89.2387V89.2387Z" stroke="white" stroke-width="2" stroke-miterlimit="10"/>
<path d="M48.8735 28.1028H29.7327H15.5264" stroke="white" stroke-width="2" stroke-miterlimit="10"/>
<path d="M17.4565 78.8472L19.1428 79.2378C26.1141 80.8553 33.3557 80.8553 40.3271 79.2378L42.0132 78.8472" stroke="white" stroke-width="2" stroke-miterlimit="10"/>
<path d="M48.5379 20.3782C49.8068 18.7964 50.5023 17.041 50.5023 15.2031C50.5023 7.92319 39.5357 2.01465 25.9991 2.01465C12.4625 2.01465 1.49805 7.92319 1.49805 15.2031C1.49805 17.041 2.19134 18.7964 3.46025 20.3782V28.3893C3.45988 29.7816 4.00213 31.1176 4.96884 32.1063V32.1063C5.45307 32.6027 6.0296 32.9968 6.66504 33.2657C7.30047 33.5346 7.9822 33.673 8.67076 33.6729H10.0552" stroke="white" stroke-width="2" stroke-miterlimit="10"/>
</svg>
