<svg width="81" height="95" viewBox="0 0 81 95" fill="none" xmlns="http://www.w3.org/2000/svg">
<path d="M49.9569 1.6936H61.5359C62.7186 1.6936 63.8528 2.16872 64.6891 3.01445C65.5254 3.86017 65.9952 5.00721 65.9952 6.20324V17.5281H45.5V6.20324C45.5 5.00763 45.9695 3.86095 46.8053 3.0153C47.641 2.16965 48.7747 1.69424 49.9569 1.6936V1.6936Z" stroke="white" stroke-width="2" stroke-miterlimit="10"/>
<path d="M79.2849 33.6336L78.1916 34.7393C77.3553 35.5849 76.8854 36.7319 76.8853 37.9279V44.4263C62.8503 46.2214 48.6476 46.2214 34.6126 44.4263V37.9279C34.6126 36.7319 34.1427 35.5849 33.3064 34.7393L32.1987 33.6191L32.304 31.9788L36.3399 28.4683C36.9237 27.9621 37.3673 27.3109 37.627 26.5788L39.7801 20.5063C40.0914 19.6338 40.661 18.8795 41.4115 18.3462C42.1619 17.8129 43.0566 17.5263 43.9739 17.5257H67.481C68.4069 17.5211 69.3112 17.8082 70.0683 18.3471C70.8254 18.886 71.3978 19.65 71.7059 20.5329L73.8231 26.5813C74.0791 27.3098 74.5147 27.9601 75.0887 28.4708L79.2107 32.1215L79.2849 33.6336Z" stroke="white" stroke-width="2" stroke-miterlimit="10"/>
<path d="M76.8853 40.5698V52.6834L70.2705 88.3347C70.1132 89.1798 69.7205 89.9619 69.1386 90.5889C68.5567 91.2159 67.8098 91.6618 66.9858 91.8742L66.9284 91.8887C59.5664 93.7805 51.853 93.7763 44.493 91.8766C43.6699 91.6642 42.924 91.2184 42.3429 90.5918C41.7619 89.9652 41.3699 89.1838 41.2131 88.3396L34.603 52.6834V40.5698" stroke="white" stroke-width="2" stroke-miterlimit="10"/>
<path d="M65.9953 9.60962H50.646" stroke="white" stroke-width="2" stroke-miterlimit="10"/>
<path d="M79.5597 32.9126L74.7583 33.4715C62.1256 34.9058 49.373 34.8896 36.7439 33.4231L32.4712 32.9126" stroke="white" stroke-width="2" stroke-miterlimit="10"/>
<path d="M25.7081 88.6516C17.9107 89.9218 9.96247 89.9218 2.16504 88.6516V88.6516L5.35403 78.142C5.65149 77.1614 6.25218 76.3032 7.06779 75.6935C7.88339 75.0838 8.8709 74.7548 9.88513 74.7549H17.988C19.0047 74.7517 19.9954 75.0793 20.8139 75.6892C21.6324 76.2991 22.2353 77.159 22.5335 78.142L25.7081 88.6516Z" stroke="white" stroke-width="2" stroke-miterlimit="10"/>
<path d="M25.7081 54.4885C17.9107 53.2183 9.96247 53.2183 2.16504 54.4885V54.4885L5.58848 70.94C5.81081 72.0171 6.39264 72.984 7.23639 73.6787C8.08013 74.3734 9.13444 74.7535 10.2225 74.7552H17.6387C18.7266 74.7549 19.7812 74.3764 20.6258 73.6831C21.4704 72.9897 22.0535 72.0237 22.2775 70.9472L25.7081 54.4885Z" stroke="white" stroke-width="2" stroke-miterlimit="10"/>
</svg>
