<svg width="90" height="93" viewBox="0 0 90 93" fill="none" xmlns="http://www.w3.org/2000/svg">
<g opacity="0.9">
<path d="M14.3545 14.6904L47.9772 54.0986L81.8075 14.4836" stroke="white" stroke-width="2" stroke-miterlimit="10"/>
<path d="M47.9453 54.0986V80.7145" stroke="white" stroke-width="2" stroke-miterlimit="10"/>
<path d="M60.6737 90.7769L47.9282 80.7144L35.2168 90.7769H60.6737Z" stroke="white" stroke-width="2" stroke-miterlimit="10"/>
<path d="M75.0354 21.3118H29.9512" stroke="white" stroke-width="2" stroke-miterlimit="10"/>
<path d="M22.6008 23.0027C24.1761 21.3698 25.2633 19.3224 25.7378 17.0952C25.9317 16.2361 26.0267 15.3572 26.021 14.4762C26.0215 12.0515 25.3088 9.68121 23.9731 7.665C22.6375 5.64878 20.7388 4.07724 18.5172 3.14915C16.2957 2.22105 13.8511 1.97809 11.4926 2.451C9.13411 2.9239 6.96768 4.09142 5.26731 5.8059C3.56695 7.52038 2.40904 9.7048 1.94003 12.0829C1.47102 14.4609 1.71197 16.9259 2.63243 19.1658C3.55288 21.4058 5.11148 23.3202 7.1111 24.667C9.11072 26.0138 11.4615 26.7323 13.8662 26.7318C14.8699 26.7341 15.8701 26.6126 16.8445 26.37" stroke="white" stroke-width="2" stroke-miterlimit="10"/>
<path d="M46.7319 36.9446L75.2892 5.99159L89.5776 2.32153" stroke="white" stroke-width="2" stroke-miterlimit="10"/>
</g>
</svg>
