<svg width="72" height="99" viewBox="0 0 72 99" fill="none" xmlns="http://www.w3.org/2000/svg">
<path d="M42.9342 27.1323C40.9062 24.8212 39.6171 21.9677 39.2299 18.9326C38.8427 15.8975 39.3747 12.8171 40.7588 10.0808C42.1429 7.34456 44.3169 5.07529 47.0058 3.55996C49.6948 2.04462 52.778 1.35126 55.8656 1.56752C58.9533 1.78378 61.9067 2.89996 64.3526 4.77494C66.7984 6.64993 68.6268 9.19952 69.6065 12.1014C70.5863 15.0032 70.6734 18.127 69.857 21.0778C69.0405 24.0286 67.3571 26.6738 65.0195 28.6792" stroke="white" stroke-width="2" stroke-linecap="round" stroke-linejoin="round"/>
<path d="M54.7828 17.0156L46.9567 81.9844V92.8125C46.9567 94.0433 46.462 95.2236 45.5814 96.0939C44.7008 96.9642 43.5064 97.4531 42.2611 97.4531H14.0872C12.8418 97.4531 11.6475 96.9642 10.7669 96.0939C9.88626 95.2236 9.39152 94.0433 9.39152 92.8125V81.9844L1.56543 17.0156" stroke="white" stroke-width="2" stroke-linecap="round" stroke-linejoin="round"/>
<path d="M48.2557 71.1562C47.5827 78.3183 40.1479 83.5312 32.8697 83.5312H23.4784C16.2001 83.5312 8.76533 78.3183 8.09229 71.1562" stroke="white" stroke-width="2" stroke-linecap="round" stroke-linejoin="round"/>
<path d="M4.6958 32.4844H36.0001" stroke="white" stroke-width="2" stroke-linecap="round" stroke-linejoin="round"/>
<path d="M17.374 26.2969C18.0865 24.4268 18.9177 22.603 19.8627 20.8364C22.5741 22.4193 25.1312 24.2473 27.501 26.2969" stroke="white" stroke-width="2" stroke-linecap="round" stroke-linejoin="round"/>
<path d="M37.5654 38.6719C38.2093 39.9896 38.7331 41.3615 39.1307 42.7711C39.6882 44.3633 39.9108 46.0512 39.7849 47.7315C39.6591 49.4117 39.1874 51.0488 38.3987 52.5425C37.6101 54.0362 36.5211 55.3551 35.1986 56.4182C33.876 57.4813 32.3477 58.2664 30.7073 58.7252C29.0669 59.184 27.349 59.3069 25.6589 59.0865C23.9687 58.866 22.342 58.3068 20.8782 57.4431C19.4145 56.5794 18.1446 55.4293 17.1464 54.0635C16.1482 52.6977 15.4428 51.1448 15.0733 49.5C14.1238 45.9719 13.8478 42.2999 14.2593 38.6719" stroke="white" stroke-width="2" stroke-linecap="round" stroke-linejoin="round"/>
<path d="M25.1846 38.6875L28.1741 49.5002" stroke="white" stroke-width="2" stroke-linecap="round" stroke-linejoin="round"/>
</svg>
