<svg width="88" height="95" viewBox="0 0 88 95" fill="none" xmlns="http://www.w3.org/2000/svg">
<path d="M63.7296 93.2227L50.1858 82.8435L36.6782 93.2227H63.7296Z" stroke="white" stroke-width="2" stroke-miterlimit="10"/>
<path d="M14.5112 12.3571V20.0705C14.5112 22.3471 14.9715 24.6012 15.8658 26.7028C16.7601 28.8045 18.0706 30.7121 19.7218 32.3156C21.373 33.9192 23.3321 35.1869 25.4863 36.0458C27.6405 36.9048 29.9471 37.3379 32.2731 37.3201V37.3201L37.4613 48.456C38.5805 50.856 40.3811 52.8905 42.6486 54.317C44.9161 55.7435 47.5548 56.502 50.2503 56.5019V56.5019C52.9408 56.5021 55.5749 55.7464 57.8396 54.3247C60.1043 52.9029 61.9045 50.8748 63.0263 48.4813L68.2612 37.3099H68.6425C73.3024 37.2884 77.764 35.4616 81.0512 32.229C84.3385 28.9964 86.184 24.6211 86.1839 20.0603V12.2632" stroke="white" stroke-width="2" stroke-miterlimit="10"/>
<path d="M50.2036 55.3899V82.8436" stroke="white" stroke-width="2" stroke-miterlimit="10"/>
<path d="M86.7262 19.7024H33.0151" stroke="white" stroke-width="2" stroke-miterlimit="10"/>
<path d="M15.99 26.9968C19.1854 26.6962 22.1517 25.2412 24.3101 22.9156C26.4684 20.5899 27.664 17.5606 27.6635 14.4188C27.6628 12.1843 27.0571 9.98989 25.9081 8.05903C24.7591 6.12816 23.1078 4.5298 21.1224 3.42671C19.1369 2.32361 16.8883 1.75518 14.6054 1.7793C12.3225 1.80342 10.0869 2.41925 8.12625 3.56404C6.1656 4.70883 4.54993 6.3417 3.44377 8.2964C2.33762 10.2511 1.78049 12.4578 1.8291 14.6918C1.87771 16.9257 2.53032 19.1072 3.7205 21.0141C4.91068 22.9209 6.5959 24.485 8.60457 25.547" stroke="white" stroke-width="2" stroke-miterlimit="10"/>
<path d="M68.6451 37.3201H60.5229" stroke="white" stroke-width="2" stroke-miterlimit="10"/>
<path d="M39.638 37.3201H30.5508" stroke="white" stroke-width="2" stroke-miterlimit="10"/>
</svg>
