<svg width="72" height="97" viewBox="0 0 72 97" fill="none" xmlns="http://www.w3.org/2000/svg">
<path d="M15.0672 41.2895C18.0745 41.0106 20.8659 39.6664 22.8972 37.5189C24.9285 35.3713 26.0542 32.5744 26.0548 29.6732C26.054 27.6074 25.483 25.5788 24.4001 23.7938C23.3171 22.0088 21.7608 20.5313 19.8898 19.5117C18.0187 18.4921 15.8997 17.9669 13.7485 17.9895C11.5973 18.0121 9.49073 18.5817 7.64335 19.6403C5.79597 20.699 4.27374 22.2088 3.23172 24.0161C2.1897 25.8234 1.66508 27.8636 1.71131 29.9289C1.75753 31.9942 2.37292 34.0109 3.49484 35.7736C4.61676 37.5362 6.20511 38.9819 8.09816 39.9633" stroke="white" stroke-width="2" stroke-miterlimit="10"/>
<path d="M51.9463 37.8508H28.5044" stroke="white" stroke-width="2" stroke-miterlimit="10"/>
<path d="M14.7935 29.6309V90.9817C14.7941 92.1419 15.2743 93.2544 16.1287 94.0747C16.983 94.8951 18.1416 95.3563 19.3498 95.3569H47.3896C48.5978 95.3563 49.7564 94.8951 50.6108 94.0747C51.4651 93.2544 51.9453 92.1419 51.946 90.9817V29.6309" stroke="white" stroke-width="2" stroke-miterlimit="10"/>
<path d="M29.9952 84.1279L30.8459 74.718C30.8725 74.4444 31.0109 74.1921 31.2308 74.0162C31.4506 73.8402 31.7341 73.755 32.0192 73.7792L41.8164 74.596C42.1011 74.6222 42.3635 74.7552 42.5466 74.9662C42.7296 75.1772 42.8186 75.449 42.7942 75.7226L41.9435 85.1302C41.9162 85.4036 41.7776 85.6555 41.5579 85.8313C41.3382 86.0071 41.0551 86.0926 40.7702 86.0691L30.9705 85.2522C30.6865 85.226 30.4247 85.0932 30.242 84.8827C30.0594 84.6722 29.9707 84.4009 29.9952 84.1279Z" stroke="white" stroke-width="2" stroke-miterlimit="10"/>
<path d="M27.6476 52.6481L21.0276 59.634C20.6251 60.0587 20.6574 60.7164 21.0998 61.1029L28.375 67.4595C28.8173 67.846 29.5022 67.815 29.9047 67.3902L36.5247 60.4044C36.9272 59.9796 36.8949 59.322 36.4525 58.9355L29.1773 52.5788C28.735 52.1923 28.0501 52.2233 27.6476 52.6481Z" stroke="white" stroke-width="2" stroke-miterlimit="10"/>
<path d="M52.8041 0.455322L51.3081 5.42432" stroke="white" stroke-width="2" stroke-miterlimit="10"/>
<path d="M46.9986 19.7891L37.3848 51.7742" stroke="white" stroke-width="2" stroke-miterlimit="10"/>
<path d="M24.7715 13.8955L28.8072 17.7378L35.4829 16.4656L40.3179 21.0567L46.9936 19.7846L51.8335 24.378L58.5019 23.1035L63.3442 27.697L68.9297 26.6384L51.5133 5.36108L24.7715 13.8955Z" stroke="white" stroke-width="2" stroke-miterlimit="10"/>
</svg>
