<svg width="86" height="87" viewBox="0 0 86 87" fill="none" xmlns="http://www.w3.org/2000/svg">
<g clip-path="url(#clip0_693_4480)">
<path d="M62.0409 34.0938L60.5628 42.9087C60.497 43.3005 60.3748 43.6807 60.2 44.0375L57.7812 48.875L54.1531 81.5684C54.0435 82.559 53.5709 83.4739 52.8264 84.1364C52.082 84.799 51.1185 85.1623 50.1219 85.1562H21.0834C20.0869 85.1623 19.1234 84.799 18.3789 84.1364C17.6344 83.4739 17.1618 82.559 17.0522 81.5684L13.4375 48.875L11.0187 44.0375C10.8439 43.6807 10.7217 43.3005 10.6559 42.9087L8.0625 27.375" stroke="white" stroke-width="2" stroke-linecap="round" stroke-linejoin="round"/>
<path d="M27.2378 59.101C27.1329 56.3314 25.9503 53.7123 23.9422 51.8021C21.9341 49.8918 19.2592 48.8415 16.4878 48.875H13.4375" stroke="white" stroke-width="2" stroke-linecap="round" stroke-linejoin="round"/>
<path d="M43.981 59.101C44.0859 56.3314 45.2684 53.7123 47.2766 51.8021C49.2847 49.8918 51.9596 48.8415 54.731 48.875H57.7813" stroke="white" stroke-width="2" stroke-linecap="round" stroke-linejoin="round"/>
<path d="M42.9999 78.4375L44.0749 57.1928C44.1092 56.1127 43.9259 55.0368 43.5361 54.029C43.1463 53.0211 42.5578 52.1019 41.8057 51.326C41.0536 50.5501 40.1532 49.9332 39.158 49.5122C38.1628 49.0911 37.0931 48.8745 36.0125 48.875H35.2062C34.1256 48.8745 33.0559 49.0911 32.0607 49.5122C31.0655 49.9332 30.1651 50.5501 29.413 51.326C28.6608 52.1019 28.0724 53.0211 27.6826 54.029C27.2927 55.0368 27.1095 56.1127 27.1437 57.1928L28.2187 78.4375" stroke="white" stroke-width="2" stroke-linecap="round" stroke-linejoin="round"/>
<path d="M45.6875 32.75H9.40625" stroke="white" stroke-width="2" stroke-linecap="round" stroke-linejoin="round"/>
<path d="M63.1562 34.0938C67.609 34.0938 71.2188 30.484 71.2188 26.0312C71.2188 21.5785 67.609 17.9688 63.1562 17.9688C58.7035 17.9688 55.0938 21.5785 55.0938 26.0312C55.0938 30.484 58.7035 34.0938 63.1562 34.0938Z" stroke="white" stroke-width="2" stroke-linecap="round" stroke-linejoin="round"/>
<path d="M64.5 20.6562C64.5 20.6562 65.8438 1.84375 84.6562 1.84375" stroke="white" stroke-width="2" stroke-linecap="round" stroke-linejoin="round"/>
<path d="M77.9375 10.0811C78.5019 10.5514 79.0528 11.0217 79.2812 11.2501L71.2188 23.3439" stroke="white" stroke-width="2" stroke-linecap="round" stroke-linejoin="round"/>
<path d="M55.0938 23.3438L48.375 7.21883C48.375 7.21883 60.6569 0.0969529 71.2188 4.53133" stroke="white" stroke-width="2" stroke-linecap="round" stroke-linejoin="round"/>
<path d="M23.9725 38.125C22.6549 39.3847 20.9996 40.2344 19.2081 40.5708C17.4165 40.9071 15.5657 40.7157 13.8809 40.0197C12.7168 39.613 11.6503 38.9677 10.75 38.125" stroke="white" stroke-width="2" stroke-linecap="round" stroke-linejoin="round"/>
<path d="M11.1797 23.3438C14.4814 18.7943 19.2124 15.4825 24.6172 13.9375C26.9129 18.0318 28.0204 22.6855 27.8153 27.375" stroke="white" stroke-width="2" stroke-linecap="round" stroke-linejoin="round"/>
<path d="M20.5457 23.8679L19.1079 27.3751" stroke="white" stroke-width="2" stroke-linecap="round" stroke-linejoin="round"/>
<path d="M8.06234 34.5775C7.12094 34.4645 6.21771 34.1383 5.42136 33.6237C4.62501 33.1091 3.95651 32.4196 3.46671 31.6078C-0.564536 24.6606 2.44546 16.625 2.44546 16.625C6.00902 17.2757 9.33739 18.8565 12.0936 21.2072" stroke="white" stroke-width="2" stroke-linecap="round" stroke-linejoin="round"/>
</g>
<defs>
<clipPath id="clip0_693_4480">
<rect width="86" height="86" fill="white" transform="translate(0 0.5)"/>
</clipPath>
</defs>
</svg>
