<svg width="51" height="95" viewBox="0 0 51 95" fill="none" xmlns="http://www.w3.org/2000/svg">
<path d="M40.9338 93.215L29.113 82.79L17.3262 93.215H40.9338Z" stroke="white" stroke-width="2" stroke-miterlimit="10"/>
<path d="M23.7749 60.9812L37.3591 6.71191L50.6082 2.90967" stroke="white" stroke-width="2" stroke-miterlimit="10"/>
<path d="M29.0405 69.4529V82.7697" stroke="white" stroke-width="2" stroke-miterlimit="10"/>
<path d="M41.6829 31.6445H22.0254" stroke="white" stroke-width="2" stroke-miterlimit="10"/>
<path d="M30.8831 70.2766H27.2432C24.6473 70.2777 22.0853 69.6122 19.7519 68.3308C17.4185 67.0494 15.375 65.1856 13.7767 62.8812V62.8812C11.7715 59.9889 10.542 56.5111 10.2332 52.8577C9.92439 49.2043 10.5491 45.5275 12.0337 42.2609L15.0693 35.577C16.5075 32.4132 17.1696 28.8741 16.9869 25.3256C16.8042 21.7771 15.7835 18.3479 14.0303 15.3927L13.8899 15.1555H44.2092L44.1504 15.255C42.4 18.2282 41.3888 21.6755 41.222 25.2383C41.0552 28.801 41.7389 32.349 43.2019 35.5132L46.1764 41.9447C47.6958 45.2287 48.3418 48.9368 48.0371 52.6243C47.7323 56.3117 46.4897 59.8217 44.4582 62.7333L44.3247 62.9271C42.7246 65.219 40.6832 67.0714 38.3547 68.3445C36.0262 69.6177 33.4714 70.2783 30.8831 70.2766V70.2766Z" stroke="white" stroke-width="2" stroke-miterlimit="10"/>
<path d="M18.8108 14.8469V1.78516C16.5486 1.78516 14.3086 2.28712 12.2186 3.26239C10.1286 4.23766 8.22958 5.66713 6.62996 7.46919C5.03034 9.27125 3.76146 11.4106 2.89576 13.7651C2.03005 16.1196 1.58447 18.6432 1.58447 21.1917H11.0918" stroke="white" stroke-width="2" stroke-miterlimit="10"/>
</svg>
