<svg width="67" height="69" viewBox="0 0 67 69" fill="none" xmlns="http://www.w3.org/2000/svg">
<g clip-path="url(#clip0_693_4451)">
<path d="M65.1482 0V56.601C65.1482 59.371 64.1094 62.0275 62.2604 63.9865C60.4113 65.9454 57.9034 67.0463 55.288 67.047H11.7122C10.4172 67.047 9.13477 66.7768 7.9383 66.2518C6.74184 65.7268 5.65473 64.9573 4.7391 63.9873C3.82346 63.0172 3.09724 61.8657 2.60188 60.5983C2.10651 59.331 1.8517 57.9727 1.85205 56.601V0" stroke="white" stroke-width="2" stroke-miterlimit="10"/>
<path d="M1.85205 10.446V44.1741C1.85165 45.3876 2.20808 46.5712 2.87183 47.5604C3.53558 48.5496 4.47369 49.2954 5.5559 49.6941L5.85486 49.8062C23.7568 56.4212 43.2461 56.4212 61.148 49.8062L61.447 49.6941C62.5292 49.2954 63.4674 48.5496 64.1311 47.5604C64.7949 46.5712 65.1513 45.3876 65.1509 44.1741V10.446" stroke="white" stroke-width="2" stroke-miterlimit="10"/>
<path d="M42.438 9.49316H7.71436" stroke="white" stroke-width="2" stroke-miterlimit="10"/>
<path d="M64.8569 9.49316H50.4146" stroke="white" stroke-width="2" stroke-miterlimit="10"/>
<path d="M56.7052 16.2891L47.5012 6.54093C46.9413 5.94784 46.0334 5.94783 45.4734 6.54092L36.2694 16.2891C35.7094 16.8822 35.7094 17.8438 36.2694 18.4369L45.4734 28.185C46.0333 28.7781 46.9413 28.7781 47.5012 28.185L56.7052 18.4369C57.2652 17.8438 57.2652 16.8822 56.7052 16.2891Z" stroke="white" stroke-width="2" stroke-miterlimit="10"/>
<path d="M31.2614 41.2774L32.3868 27.5431C32.4552 26.7074 31.8712 25.9712 31.0822 25.8987L18.1146 24.7068C17.3256 24.6343 16.6305 25.2529 16.562 26.0885L15.4366 39.8229C15.3681 40.6585 15.9522 41.3947 16.7412 41.4672L29.7088 42.6591C30.4978 42.7316 31.1929 42.113 31.2614 41.2774Z" stroke="white" stroke-width="2" stroke-miterlimit="10"/>
</g>
<defs>
<clipPath id="clip0_693_4451">
<rect width="67" height="69" fill="white"/>
</clipPath>
</defs>
</svg>
