<svg width="85" height="95" viewBox="0 0 85 95" fill="none" xmlns="http://www.w3.org/2000/svg">
<path d="M33.7755 52.9729V85.6051C33.7755 86.1296 33.6708 86.6489 33.4675 87.1334C33.2641 87.6179 32.9661 88.0582 32.5903 88.429C32.2146 88.7999 31.7685 89.094 31.2776 89.2947C30.7867 89.4954 30.2605 89.5987 29.7291 89.5987H5.5659C5.03444 89.599 4.50814 89.4959 4.01708 89.2953C3.52602 89.0947 3.07984 88.8005 2.70404 88.4296C2.32824 88.0587 2.03021 87.6184 1.82696 87.1337C1.62371 86.6491 1.51925 86.1297 1.51953 85.6051V52.9729" stroke="white" stroke-width="2" stroke-miterlimit="10"/>
<path d="M1.51953 58.6785V79.3749C11.8701 83.4755 23.4249 83.4755 33.7755 79.3749V79.3749V58.6785" stroke="white" stroke-width="2" stroke-miterlimit="10"/>
<path d="M33.7756 58.1599H5.53564" stroke="white" stroke-width="2" stroke-miterlimit="10"/>
<path d="M81.3683 53.8301H54.3179V75.7627H81.3683V53.8301Z" stroke="white" stroke-width="2" stroke-miterlimit="10"/>
<path d="M68.6844 11.353H61.5229" stroke="white" stroke-width="2" stroke-miterlimit="10"/>
<path d="M42.7583 84.3391L45.2439 82.7429V49.2858L42.7583 47.6876V38.5049L54.6 32.2295C54.7329 32.1538 54.8401 32.041 54.908 31.9052C54.976 31.7695 55.0018 31.6169 54.9821 31.4668V31.4668C54.1901 25.4074 54.9645 19.2487 57.2332 13.5642L57.6978 12.4029C57.7441 12.2867 57.7609 12.161 57.7468 12.0368C57.7327 11.9127 57.6881 11.7938 57.6169 11.6905C57.5456 11.5873 57.4499 11.5028 57.338 11.4443C57.2261 11.3859 57.1015 11.3553 56.9749 11.3552V11.3552C56.7688 11.3552 56.5711 11.2745 56.4254 11.1306C56.2796 10.9868 56.1977 10.7917 56.1977 10.5882V2.3011C56.1977 2.19615 56.2187 2.09224 56.2594 1.99528C56.3001 1.89833 56.3597 1.81023 56.4349 1.73603C56.5101 1.66182 56.5994 1.60295 56.6976 1.56279C56.7958 1.52263 56.9011 1.50195 57.0075 1.50195H69.3137C69.5285 1.50195 69.7344 1.58616 69.8863 1.73603C70.0381 1.8859 70.1235 2.08915 70.1235 2.3011V10.5882C70.1246 10.6904 70.1051 10.7918 70.066 10.8864C70.0269 10.981 69.9691 11.067 69.8959 11.1392C69.8227 11.2115 69.7356 11.2686 69.6397 11.3071C69.5438 11.3457 69.4411 11.365 69.3376 11.3638V11.3638C69.2117 11.3639 69.0876 11.3943 68.9762 11.4522C68.8647 11.5102 68.7692 11.594 68.6979 11.6964C68.6265 11.7989 68.5815 11.9169 68.5666 12.0404C68.5518 12.1638 68.5675 12.289 68.6126 12.4051L69.1379 13.7548C71.3509 19.437 72.0766 25.5781 71.2479 31.6103V31.6103C71.2268 31.7623 71.2524 31.917 71.3212 32.0545C71.3901 32.192 71.4992 32.3059 71.6343 32.3816L83.4739 38.522V47.7047L81.3552 49.303V82.7536L83.4739 84.3498V89.5175C83.4739 90.5763 83.0479 91.5917 82.2895 92.3406C81.5312 93.0895 80.5025 93.5105 79.4297 93.5111H46.8047C45.7317 93.5105 44.7028 93.0895 43.9441 92.3407C43.1854 91.5919 42.7589 90.5764 42.7583 89.5175V84.3391Z" stroke="white" stroke-width="2" stroke-miterlimit="10"/>
</svg>
