<svg width="63" height="75" viewBox="0 0 63 75" fill="none" xmlns="http://www.w3.org/2000/svg">
<g clip-path="url(#clip0_693_4512)">
<path d="M40.6012 18.4797C39.7045 16.6727 39.2861 14.655 39.3881 12.6293C39.49 10.6035 40.1087 8.64093 41.182 6.93863C42.2553 5.23633 43.7455 3.8542 45.5029 2.93099C47.2603 2.00779 49.2231 1.57599 51.1942 1.67898C53.1653 1.78197 55.0754 2.41611 56.7326 3.51773C58.3898 4.61935 59.736 6.14968 60.6358 7.95508C61.5356 9.76047 61.9575 11.7774 61.859 13.8034C61.7606 15.8293 61.1453 17.793 60.0749 19.4973" stroke="white" stroke-width="2" stroke-linecap="round" stroke-linejoin="round"/>
<path d="M2.25 24.7812H38.25" stroke="white" stroke-width="2" stroke-linecap="round" stroke-linejoin="round"/>
<path d="M50.625 51.375C50.625 57.1562 44.91 61.7812 38.61 61.7812H13.14C6.83999 61.7812 1.125 57.1562 1.125 51.375" stroke="white" stroke-width="2" stroke-linecap="round" stroke-linejoin="round"/>
<path d="M50.625 13.2188V67.5625C50.625 69.0958 50.0324 70.5663 48.9775 71.6504C47.9226 72.7346 46.4918 73.3438 45 73.3438H6.75C5.25816 73.3438 3.82743 72.7346 2.77254 71.6504C1.71765 70.5663 1.125 69.0958 1.125 67.5625V13.2188" stroke="white" stroke-width="2" stroke-linecap="round" stroke-linejoin="round"/>
<path d="M18 20.1563L21.7012 16.3522C21.8058 16.2439 21.9303 16.1579 22.0673 16.0992C22.2044 16.0405 22.3515 16.0103 22.5 16.0103C22.6485 16.0103 22.7956 16.0405 22.9327 16.0992C23.0697 16.1579 23.1942 16.2439 23.2988 16.3522L27 20.1563" stroke="white" stroke-width="2" stroke-linecap="round" stroke-linejoin="round"/>
<path d="M35.539 29.4062C35.5384 29.5592 35.5082 29.7106 35.4503 29.8515C35.3923 29.9924 35.3077 30.1201 35.2014 30.2272L23.299 42.4603C23.1944 42.5687 23.07 42.6547 22.9329 42.7134C22.7958 42.7721 22.6487 42.8023 22.5002 42.8023C22.3517 42.8023 22.2046 42.7721 22.0676 42.7134C21.9305 42.6547 21.806 42.5687 21.7014 42.4603L9.79898 30.2272C9.69268 30.1201 9.60807 29.9924 9.55014 29.8515C9.49221 29.7106 9.46204 29.5592 9.46143 29.4062" stroke="white" stroke-width="2" stroke-linecap="round" stroke-linejoin="round"/>
</g>
<defs>
<clipPath id="clip0_693_4512">
<rect width="63" height="74" fill="white" transform="translate(0 0.5)"/>
</clipPath>
</defs>
</svg>
