<svg width="41" height="99" viewBox="0 0 41 99" fill="none" xmlns="http://www.w3.org/2000/svg">
<path d="M31.9719 96.6392L20.3935 85.7712L8.84619 96.6392H31.9719Z" stroke="white" stroke-width="2" stroke-miterlimit="10"/>
<path d="M20.4092 57.9661V85.7207" stroke="white" stroke-width="2" stroke-miterlimit="10"/>
<path d="M35.9261 17.4558H10.5273" stroke="white" stroke-width="2" stroke-miterlimit="10"/>
<path d="M20.4468 58.4603C17.3101 58.4605 14.2234 57.5185 11.4687 55.7203C8.71392 53.9222 6.3789 51.3252 4.67699 48.1667L4.55501 47.938C3.15199 45.3335 2.21309 42.4094 1.79713 39.3493C1.38117 36.2893 1.49713 33.1592 2.13779 30.1554L8.0678 2.36084H32.7747L38.8222 29.7859C39.4932 32.8283 39.6244 36.0057 39.2073 39.1127C38.7901 42.2197 37.834 45.1873 36.4006 47.8237L36.1788 48.2464C34.4727 51.3839 32.1404 53.9613 29.3932 55.7449C26.6461 57.5285 23.571 58.4619 20.4468 58.4603V58.4603Z" stroke="white" stroke-width="2" stroke-miterlimit="10"/>
</svg>
