<svg width="74" height="97" viewBox="0 0 74 97" fill="none" xmlns="http://www.w3.org/2000/svg">
<path d="M22.2504 91.7147L13.2147 83.2908L4.37061 91.5035L22.2504 91.7147Z" stroke="white" stroke-width="2" stroke-miterlimit="10"/>
<path d="M13.1655 65.5852V83.2754" stroke="white" stroke-width="2" stroke-miterlimit="10"/>
<path d="M6.25835 62.8338C4.60365 61.6571 3.31298 60.0855 2.5199 58.2816C1.72683 56.4776 1.46017 54.5069 1.74752 52.5734L5.13706 29.8025H21.3373L24.8623 52.4436C25.1626 54.3721 24.9109 56.3412 24.1331 58.1476C23.3554 59.9539 22.0797 61.5322 20.4379 62.7194L20.3515 62.781C18.3322 64.2408 15.8601 65.0364 13.3144 65.046C10.7686 65.0555 8.28984 64.2784 6.25835 62.8338V62.8338Z" stroke="white" stroke-width="2" stroke-miterlimit="10"/>
<path d="M67.2792 95.4581H40.602C39.253 95.4581 37.9593 94.9537 37.0052 94.0558C36.0511 93.1579 35.5148 91.94 35.5142 90.6699V61.4415C35.5147 49.5439 40.1624 38.0621 48.5724 29.1822L48.743 29.004V17.3646L45.837 14.6878V5.63931C45.8367 5.10102 45.949 4.56796 46.1676 4.07057C46.3861 3.57317 46.7067 3.1212 47.1108 2.74047C47.515 2.35974 47.9948 2.05773 48.523 1.85167C49.0511 1.64561 49.6172 1.53955 50.189 1.53955H57.6899C58.2618 1.53926 58.8281 1.64511 59.3566 1.85104C59.885 2.05697 60.3651 2.35895 60.7695 2.7397C61.1739 3.12046 61.4946 3.57252 61.7134 4.07006C61.9321 4.56759 62.0445 5.10084 62.0442 5.63931V14.6878L59.1382 17.3976V29.1426C67.6538 38.0443 72.3664 49.5999 72.367 61.5801V90.6699C72.3664 91.94 71.8301 93.1579 70.876 94.0558C69.9219 94.9537 68.6281 95.4581 67.2792 95.4581V95.4581Z" stroke="white" stroke-width="2" stroke-miterlimit="10"/>
<path d="M35.5142 79.5759H72.3647" stroke="white" stroke-width="2" stroke-miterlimit="10"/>
<path d="M72.3647 59.5171H35.5142" stroke="white" stroke-width="2" stroke-miterlimit="10"/>
<path d="M59.1384 18.2202H53.8286" stroke="white" stroke-width="2" stroke-miterlimit="10"/>
</svg>
