<svg width="836" height="471" viewBox="0 0 836 471" fill="none" xmlns="http://www.w3.org/2000/svg">
<path d="M835.239 210.366L687.6 132.446C649.478 112.326 603.881 112.326 565.759 132.446L418.12 210.366L270.48 288.287C232.358 308.407 186.761 308.407 148.639 288.287L0.999901 210.366" stroke="#181818" stroke-linecap="round" stroke-linejoin="round"/>
<path d="M835.239 160.22L687.6 82.2991C649.478 62.1792 603.881 62.1792 565.759 82.2991L418.12 160.22L270.48 238.14C232.358 258.26 186.761 258.26 148.639 238.14L0.999901 160.22" stroke="#181818" stroke-linecap="round" stroke-linejoin="round"/>
<path d="M835.239 110.073L687.6 32.1526C649.478 12.0327 603.881 12.0327 565.759 32.1526L418.12 110.073L270.48 187.994C232.358 208.114 186.761 208.114 148.639 187.994L0.999901 110.073" stroke="#181818" stroke-linecap="round" stroke-linejoin="round"/>
<path d="M835.239 260.513L687.6 182.592C649.478 162.472 603.881 162.472 565.759 182.592L418.12 260.513L270.48 338.433C232.358 358.553 186.761 358.553 148.639 338.433L0.999901 260.513" stroke="#181818" stroke-linecap="round" stroke-linejoin="round"/>
<path d="M835.239 310.659L687.6 232.739C649.478 212.619 603.881 212.619 565.759 232.739L418.12 310.659L270.48 388.58C232.358 408.7 186.761 408.7 148.639 388.58L0.999901 310.659" stroke="#181818" stroke-linecap="round" stroke-linejoin="round"/>
<path d="M835.239 360.806L687.6 282.885C649.478 262.765 603.881 262.765 565.759 282.885L418.12 360.806L270.48 438.726C232.358 458.846 186.761 458.846 148.639 438.726L0.999901 360.806" stroke="#181818" stroke-linecap="round" stroke-linejoin="round"/>
</svg>
